G75*
%MOIN*%
%OFA0B0*%
%FSLAX25Y25*%
%IPPOS*%
%LPD*%
%AMOC8*
5,1,8,0,0,1.08239X$1,22.5*
%
%ADD10C,0.00000*%
%ADD11C,0.07100*%
%ADD12R,0.08000X0.08000*%
%ADD13C,0.08000*%
%ADD14C,0.05400*%
%ADD15C,0.04362*%
D10*
X0003000Y0001800D02*
X0003000Y0211761D01*
X0156701Y0211761D01*
X0156701Y0001800D01*
X0003000Y0001800D01*
D11*
X0069500Y0021400D03*
X0089500Y0021400D03*
D12*
X0113000Y0041800D03*
X0023000Y0041800D03*
X0023000Y0131800D03*
D13*
X0023000Y0141800D03*
X0023000Y0151800D03*
X0023000Y0161800D03*
X0023000Y0171800D03*
X0023000Y0181800D03*
X0023000Y0191800D03*
X0023000Y0121800D03*
X0023000Y0111800D03*
X0023000Y0101800D03*
X0023000Y0091800D03*
X0023000Y0081800D03*
X0023000Y0071800D03*
X0023000Y0061800D03*
X0023000Y0051800D03*
X0023000Y0031800D03*
X0023000Y0021800D03*
X0023000Y0011800D03*
X0113000Y0011800D03*
X0113000Y0021800D03*
X0113000Y0031800D03*
X0113000Y0151800D03*
X0113000Y0161800D03*
X0113000Y0171800D03*
D14*
X0098000Y0169200D02*
X0098000Y0164400D01*
X0088000Y0164400D02*
X0088000Y0169200D01*
X0078000Y0169200D02*
X0078000Y0164400D01*
X0068000Y0164400D02*
X0068000Y0169200D01*
X0058000Y0169200D02*
X0058000Y0164400D01*
D15*
X0043000Y0146800D03*
X0051400Y0130200D03*
X0070600Y0144400D03*
X0073000Y0151800D03*
X0101900Y0144400D03*
X0118000Y0131800D03*
X0113000Y0121800D03*
X0103000Y0101800D03*
X0103000Y0071800D03*
X0078000Y0071800D03*
X0069000Y0064300D03*
X0058000Y0036800D03*
X0048000Y0016800D03*
X0033000Y0086800D03*
X0078000Y0101800D03*
X0138000Y0104000D03*
X0138000Y0116800D03*
X0138000Y0176800D03*
X0123000Y0186800D03*
X0143000Y0196800D03*
X0033000Y0196800D03*
X0138000Y0046800D03*
X0138000Y0021800D03*
M02*
