G75*
%MOIN*%
%OFA0B0*%
%FSLAX25Y25*%
%IPPOS*%
%LPD*%
%AMOC8*
5,1,8,0,0,1.08239X$1,22.5*
%
%ADD10C,0.00000*%
%ADD11R,0.02756X0.03543*%
%ADD12R,0.06299X0.05512*%
%ADD13R,0.03150X0.03150*%
%ADD14R,0.04700X0.02200*%
%ADD15R,0.02200X0.04700*%
%ADD16R,0.03543X0.02756*%
%ADD17R,0.04331X0.03937*%
%ADD18C,0.06500*%
%ADD19R,0.07400X0.07400*%
%ADD20C,0.07400*%
%ADD21R,0.09449X0.07087*%
%ADD22R,0.03100X0.03500*%
%ADD23R,0.12598X0.07087*%
%ADD24R,0.05906X0.03937*%
%ADD25R,0.07874X0.03937*%
%ADD26C,0.08661*%
%ADD27C,0.04800*%
%ADD28R,0.13504X0.06496*%
%ADD29R,0.05000X0.10000*%
%ADD30R,0.02480X0.03268*%
%ADD31C,0.01600*%
%ADD32C,0.03762*%
%ADD33C,0.04000*%
D10*
X0003000Y0001800D02*
X0003000Y0211761D01*
X0156701Y0211761D01*
X0156701Y0001800D01*
X0003000Y0001800D01*
D11*
X0125441Y0106800D03*
X0125441Y0111800D03*
X0125441Y0116800D03*
X0130559Y0116800D03*
X0130559Y0111800D03*
X0130559Y0106800D03*
X0140441Y0091800D03*
X0140441Y0086800D03*
X0140441Y0081800D03*
X0140441Y0076800D03*
X0145559Y0076800D03*
X0145559Y0081800D03*
X0145559Y0086800D03*
X0145559Y0091800D03*
D12*
X0123000Y0126288D03*
X0123000Y0137312D03*
D13*
X0125447Y0101200D03*
X0131353Y0101200D03*
X0130953Y0091800D03*
X0130953Y0086800D03*
X0130953Y0081800D03*
X0130953Y0076800D03*
X0125047Y0076800D03*
X0125047Y0081800D03*
X0125047Y0086800D03*
X0125047Y0091800D03*
D14*
X0113550Y0091450D03*
X0113550Y0088350D03*
X0113550Y0085250D03*
X0113550Y0082150D03*
X0113550Y0079050D03*
X0113550Y0075950D03*
X0113550Y0072850D03*
X0113550Y0069750D03*
X0113550Y0066650D03*
X0113550Y0063550D03*
X0113550Y0094550D03*
X0113550Y0097650D03*
X0113550Y0100750D03*
X0113550Y0103850D03*
X0113550Y0106950D03*
X0113550Y0110050D03*
X0052450Y0110050D03*
X0052450Y0106950D03*
X0052450Y0103850D03*
X0052450Y0100750D03*
X0052450Y0097650D03*
X0052450Y0094550D03*
X0052450Y0091450D03*
X0052450Y0088350D03*
X0052450Y0085250D03*
X0052450Y0082150D03*
X0052450Y0079050D03*
X0052450Y0075950D03*
X0052450Y0072850D03*
X0052450Y0069750D03*
X0052450Y0066650D03*
X0052450Y0063550D03*
D15*
X0059750Y0056250D03*
X0062850Y0056250D03*
X0065950Y0056250D03*
X0069050Y0056250D03*
X0072150Y0056250D03*
X0075250Y0056250D03*
X0078350Y0056250D03*
X0081450Y0056250D03*
X0084550Y0056250D03*
X0087650Y0056250D03*
X0090750Y0056250D03*
X0093850Y0056250D03*
X0096950Y0056250D03*
X0100050Y0056250D03*
X0103150Y0056250D03*
X0106250Y0056250D03*
X0106250Y0117350D03*
X0103150Y0117350D03*
X0100050Y0117350D03*
X0096950Y0117350D03*
X0093850Y0117350D03*
X0090750Y0117350D03*
X0087650Y0117350D03*
X0084550Y0117350D03*
X0081450Y0117350D03*
X0078350Y0117350D03*
X0075250Y0117350D03*
X0072150Y0117350D03*
X0069050Y0117350D03*
X0065950Y0117350D03*
X0062850Y0117350D03*
X0059750Y0117350D03*
D16*
X0073000Y0129241D03*
X0073000Y0134359D03*
D17*
X0066346Y0136800D03*
X0059654Y0136800D03*
X0051346Y0136800D03*
X0044654Y0136800D03*
X0054654Y0151800D03*
X0061346Y0151800D03*
X0059654Y0126800D03*
X0066346Y0126800D03*
X0097154Y0126800D03*
X0103846Y0126800D03*
X0103846Y0136800D03*
X0097154Y0136800D03*
X0071346Y0046800D03*
X0064654Y0046800D03*
X0064654Y0036800D03*
X0071346Y0036800D03*
X0069346Y0007000D03*
X0062654Y0007000D03*
X0089554Y0007600D03*
X0096246Y0007600D03*
D18*
X0089500Y0021400D03*
X0069500Y0021400D03*
D19*
X0113000Y0041800D03*
X0023000Y0041800D03*
X0023000Y0131800D03*
D20*
X0023000Y0141800D03*
X0023000Y0151800D03*
X0023000Y0161800D03*
X0023000Y0171800D03*
X0023000Y0181800D03*
X0023000Y0191800D03*
X0023000Y0121800D03*
X0023000Y0111800D03*
X0023000Y0101800D03*
X0023000Y0091800D03*
X0023000Y0081800D03*
X0023000Y0071800D03*
X0023000Y0061800D03*
X0023000Y0051800D03*
X0023000Y0031800D03*
X0023000Y0021800D03*
X0023000Y0011800D03*
X0113000Y0011800D03*
X0113000Y0021800D03*
X0113000Y0031800D03*
X0113000Y0151800D03*
X0113000Y0161800D03*
X0113000Y0171800D03*
D21*
X0143000Y0144772D03*
X0143000Y0128828D03*
D22*
X0144300Y0110800D03*
X0151900Y0110800D03*
X0148100Y0102800D03*
D23*
X0043000Y0165776D03*
X0043000Y0187824D03*
D24*
X0140799Y0167702D03*
X0140799Y0155898D03*
D25*
X0139799Y0161800D03*
D26*
X0132252Y0161800D02*
X0132252Y0161800D01*
X0126346Y0161800D01*
X0126346Y0161800D01*
X0132252Y0161800D01*
D27*
X0098000Y0164400D02*
X0098000Y0169200D01*
X0088000Y0169200D02*
X0088000Y0164400D01*
X0078000Y0164400D02*
X0078000Y0169200D01*
X0068000Y0169200D02*
X0068000Y0164400D01*
X0058000Y0164400D02*
X0058000Y0169200D01*
D28*
X0050224Y0198552D03*
X0116248Y0198552D03*
D29*
X0100953Y0186229D03*
X0089142Y0186229D03*
X0077331Y0186229D03*
X0065520Y0186229D03*
D30*
X0125972Y0146900D03*
X0135028Y0146900D03*
D31*
X0135028Y0143466D01*
X0136505Y0143466D01*
X0136876Y0143566D01*
X0136876Y0140649D01*
X0137696Y0139829D01*
X0144832Y0139829D01*
X0150800Y0133861D01*
X0150800Y0113950D01*
X0149770Y0113950D01*
X0148950Y0113130D01*
X0148950Y0108470D01*
X0149770Y0107650D01*
X0150800Y0107650D01*
X0150800Y0105380D01*
X0150230Y0105950D01*
X0145970Y0105950D01*
X0145150Y0105130D01*
X0145150Y0105000D01*
X0141137Y0105000D01*
X0140782Y0105859D01*
X0139859Y0106782D01*
X0138653Y0107281D01*
X0137347Y0107281D01*
X0136141Y0106782D01*
X0135218Y0105859D01*
X0134719Y0104653D01*
X0134719Y0103347D01*
X0135218Y0102141D01*
X0136141Y0101218D01*
X0137347Y0100719D01*
X0138170Y0100719D01*
X0138289Y0100600D01*
X0145150Y0100600D01*
X0145150Y0100470D01*
X0145970Y0099650D01*
X0150230Y0099650D01*
X0150800Y0100220D01*
X0150800Y0004100D01*
X0099359Y0004100D01*
X0099517Y0004191D01*
X0099852Y0004526D01*
X0100089Y0004937D01*
X0100212Y0005395D01*
X0100212Y0007416D01*
X0096431Y0007416D01*
X0096431Y0007784D01*
X0100212Y0007784D01*
X0100212Y0009805D01*
X0100106Y0010200D01*
X0103663Y0010200D01*
X0104600Y0011137D01*
X0104600Y0022089D01*
X0107089Y0019600D01*
X0108391Y0019600D01*
X0108676Y0018911D01*
X0110111Y0017476D01*
X0111237Y0017010D01*
X0110889Y0016897D01*
X0110117Y0016504D01*
X0109417Y0015995D01*
X0108805Y0015383D01*
X0108296Y0014683D01*
X0107903Y0013911D01*
X0107635Y0013088D01*
X0107500Y0012233D01*
X0107500Y0012000D01*
X0112800Y0012000D01*
X0112800Y0011600D01*
X0113200Y0011600D01*
X0113200Y0012000D01*
X0118500Y0012000D01*
X0118500Y0012233D01*
X0118365Y0013088D01*
X0118097Y0013911D01*
X0117704Y0014683D01*
X0117195Y0015383D01*
X0116583Y0015995D01*
X0115883Y0016504D01*
X0115111Y0016897D01*
X0114763Y0017010D01*
X0115889Y0017476D01*
X0117324Y0018911D01*
X0118100Y0020786D01*
X0118100Y0022814D01*
X0117324Y0024689D01*
X0115889Y0026124D01*
X0114256Y0026800D01*
X0115889Y0027476D01*
X0117324Y0028911D01*
X0118100Y0030786D01*
X0118100Y0032814D01*
X0117324Y0034689D01*
X0115889Y0036124D01*
X0114497Y0036700D01*
X0117280Y0036700D01*
X0118100Y0037520D01*
X0118100Y0046080D01*
X0117280Y0046900D01*
X0108720Y0046900D01*
X0107900Y0046080D01*
X0107900Y0037520D01*
X0108720Y0036700D01*
X0111503Y0036700D01*
X0110111Y0036124D01*
X0108676Y0034689D01*
X0108391Y0034000D01*
X0103911Y0034000D01*
X0089850Y0048061D01*
X0089850Y0052500D01*
X0107930Y0052500D01*
X0108750Y0053320D01*
X0108750Y0059180D01*
X0107930Y0060000D01*
X0077496Y0060000D01*
X0077455Y0060040D01*
X0077045Y0060277D01*
X0076587Y0060400D01*
X0075250Y0060400D01*
X0075250Y0056250D01*
X0075250Y0056250D01*
X0075250Y0052100D01*
X0075800Y0052100D01*
X0075800Y0033400D01*
X0074626Y0033400D01*
X0074952Y0033726D01*
X0075189Y0034137D01*
X0075312Y0034595D01*
X0075312Y0036616D01*
X0071531Y0036616D01*
X0071531Y0036984D01*
X0075312Y0036984D01*
X0075312Y0039005D01*
X0075189Y0039463D01*
X0074952Y0039874D01*
X0074617Y0040209D01*
X0074207Y0040446D01*
X0073749Y0040568D01*
X0071531Y0040568D01*
X0071531Y0036984D01*
X0071162Y0036984D01*
X0071162Y0040568D01*
X0068944Y0040568D01*
X0068486Y0040446D01*
X0068076Y0040209D01*
X0067741Y0039874D01*
X0067723Y0039844D01*
X0067399Y0040168D01*
X0066854Y0040168D01*
X0066854Y0043431D01*
X0067399Y0043431D01*
X0067723Y0043756D01*
X0067741Y0043726D01*
X0068076Y0043391D01*
X0068486Y0043154D01*
X0068944Y0043031D01*
X0071162Y0043031D01*
X0071162Y0046616D01*
X0071531Y0046616D01*
X0071531Y0046984D01*
X0075312Y0046984D01*
X0075312Y0049005D01*
X0075189Y0049463D01*
X0074952Y0049874D01*
X0074617Y0050209D01*
X0074207Y0050446D01*
X0073749Y0050568D01*
X0072580Y0050568D01*
X0073111Y0051100D01*
X0073111Y0051100D01*
X0074111Y0052100D01*
X0075250Y0052100D01*
X0075250Y0056250D01*
X0075250Y0056250D01*
X0075250Y0060400D01*
X0073913Y0060400D01*
X0073455Y0060277D01*
X0073045Y0060040D01*
X0073004Y0060000D01*
X0071200Y0060000D01*
X0071200Y0061860D01*
X0071782Y0062441D01*
X0072281Y0063647D01*
X0072281Y0064953D01*
X0071782Y0066159D01*
X0070859Y0067082D01*
X0069653Y0067581D01*
X0068347Y0067581D01*
X0067141Y0067082D01*
X0066218Y0066159D01*
X0065719Y0064953D01*
X0065719Y0063647D01*
X0066218Y0062441D01*
X0066800Y0061860D01*
X0066800Y0060000D01*
X0059311Y0060000D01*
X0065200Y0065889D01*
X0065200Y0107711D01*
X0059311Y0113600D01*
X0060604Y0113600D01*
X0060645Y0113560D01*
X0061055Y0113323D01*
X0061513Y0113200D01*
X0062850Y0113200D01*
X0064187Y0113200D01*
X0064645Y0113323D01*
X0065055Y0113560D01*
X0065096Y0113600D01*
X0091604Y0113600D01*
X0091645Y0113560D01*
X0092055Y0113323D01*
X0092513Y0113200D01*
X0093850Y0113200D01*
X0095187Y0113200D01*
X0095645Y0113323D01*
X0096055Y0113560D01*
X0096096Y0113600D01*
X0107930Y0113600D01*
X0108750Y0114420D01*
X0108750Y0120280D01*
X0107930Y0121100D01*
X0099150Y0121100D01*
X0099150Y0123431D01*
X0099899Y0123431D01*
X0100223Y0123756D01*
X0100241Y0123726D01*
X0100576Y0123391D01*
X0100986Y0123154D01*
X0101444Y0123031D01*
X0103662Y0123031D01*
X0103662Y0126616D01*
X0104031Y0126616D01*
X0104031Y0126984D01*
X0107812Y0126984D01*
X0107812Y0129005D01*
X0107689Y0129463D01*
X0107452Y0129874D01*
X0107117Y0130209D01*
X0106707Y0130446D01*
X0106249Y0130568D01*
X0104031Y0130568D01*
X0104031Y0126984D01*
X0103662Y0126984D01*
X0103662Y0130568D01*
X0101444Y0130568D01*
X0100986Y0130446D01*
X0100576Y0130209D01*
X0100241Y0129874D01*
X0100223Y0129844D01*
X0099899Y0130168D01*
X0099354Y0130168D01*
X0099354Y0133431D01*
X0099899Y0133431D01*
X0100223Y0133756D01*
X0100241Y0133726D01*
X0100576Y0133391D01*
X0100986Y0133154D01*
X0101444Y0133031D01*
X0103662Y0133031D01*
X0103662Y0136616D01*
X0104031Y0136616D01*
X0104031Y0136984D01*
X0107812Y0136984D01*
X0107812Y0139005D01*
X0107689Y0139463D01*
X0107452Y0139874D01*
X0107117Y0140209D01*
X0106707Y0140446D01*
X0106249Y0140568D01*
X0104031Y0140568D01*
X0104031Y0136984D01*
X0103662Y0136984D01*
X0103662Y0140568D01*
X0101444Y0140568D01*
X0101083Y0140472D01*
X0101730Y0141119D01*
X0102553Y0141119D01*
X0103759Y0141618D01*
X0104682Y0142541D01*
X0105181Y0143747D01*
X0105181Y0145053D01*
X0104682Y0146259D01*
X0103759Y0147182D01*
X0102553Y0147681D01*
X0101247Y0147681D01*
X0100041Y0147182D01*
X0099118Y0146259D01*
X0098619Y0145053D01*
X0098619Y0144230D01*
X0094954Y0140565D01*
X0094954Y0140168D01*
X0094408Y0140168D01*
X0093588Y0139348D01*
X0093588Y0134252D01*
X0094408Y0133431D01*
X0094954Y0133431D01*
X0094954Y0130168D01*
X0094408Y0130168D01*
X0093588Y0129348D01*
X0093588Y0124252D01*
X0094408Y0123431D01*
X0094750Y0123431D01*
X0094750Y0121500D01*
X0093850Y0121500D01*
X0093850Y0117350D01*
X0093850Y0117350D01*
X0093850Y0121500D01*
X0092950Y0121500D01*
X0092950Y0158639D01*
X0095669Y0161357D01*
X0095847Y0161179D01*
X0097244Y0160600D01*
X0098756Y0160600D01*
X0100153Y0161179D01*
X0101221Y0162247D01*
X0101800Y0163644D01*
X0101800Y0167489D01*
X0103153Y0168841D01*
X0103153Y0179829D01*
X0104033Y0179829D01*
X0104853Y0180649D01*
X0104853Y0191809D01*
X0104033Y0192629D01*
X0097873Y0192629D01*
X0097053Y0191809D01*
X0097053Y0180649D01*
X0097873Y0179829D01*
X0098753Y0179829D01*
X0098753Y0173000D01*
X0097244Y0173000D01*
X0095847Y0172421D01*
X0094779Y0171353D01*
X0094200Y0169956D01*
X0094200Y0166111D01*
X0091800Y0163711D01*
X0091800Y0169956D01*
X0091342Y0171062D01*
X0091342Y0179829D01*
X0092222Y0179829D01*
X0093042Y0180649D01*
X0093042Y0191809D01*
X0092222Y0192629D01*
X0086062Y0192629D01*
X0085242Y0191809D01*
X0085242Y0180649D01*
X0086062Y0179829D01*
X0086942Y0179829D01*
X0086942Y0172875D01*
X0085847Y0172421D01*
X0084779Y0171353D01*
X0084200Y0169956D01*
X0084200Y0163644D01*
X0084779Y0162247D01*
X0085450Y0161576D01*
X0085450Y0157461D01*
X0080943Y0161969D01*
X0081221Y0162247D01*
X0081800Y0163644D01*
X0081800Y0169956D01*
X0081221Y0171353D01*
X0080153Y0172421D01*
X0079531Y0172679D01*
X0079531Y0179829D01*
X0080411Y0179829D01*
X0081231Y0180649D01*
X0081231Y0191809D01*
X0080411Y0192629D01*
X0074251Y0192629D01*
X0073431Y0191809D01*
X0073431Y0180649D01*
X0074251Y0179829D01*
X0075131Y0179829D01*
X0075131Y0171705D01*
X0074779Y0171353D01*
X0074200Y0169956D01*
X0074200Y0163711D01*
X0071800Y0166111D01*
X0071800Y0169956D01*
X0071221Y0171353D01*
X0070153Y0172421D01*
X0068756Y0173000D01*
X0067720Y0173000D01*
X0067720Y0179829D01*
X0068600Y0179829D01*
X0069420Y0180649D01*
X0069420Y0191809D01*
X0068600Y0192629D01*
X0062440Y0192629D01*
X0061620Y0191809D01*
X0061620Y0180649D01*
X0062440Y0179829D01*
X0063320Y0179829D01*
X0063320Y0168369D01*
X0064200Y0167489D01*
X0064200Y0163644D01*
X0064779Y0162247D01*
X0065847Y0161179D01*
X0067244Y0160600D01*
X0068756Y0160600D01*
X0070153Y0161179D01*
X0070331Y0161357D01*
X0079250Y0152439D01*
X0079250Y0121100D01*
X0072511Y0121100D01*
X0073911Y0122500D01*
X0075200Y0123789D01*
X0075200Y0126463D01*
X0075352Y0126463D01*
X0076172Y0127283D01*
X0076172Y0131199D01*
X0075847Y0131523D01*
X0075877Y0131541D01*
X0076212Y0131876D01*
X0076449Y0132286D01*
X0076572Y0132744D01*
X0076572Y0134359D01*
X0073000Y0134359D01*
X0073000Y0134359D01*
X0076572Y0134359D01*
X0076572Y0135974D01*
X0076449Y0136432D01*
X0076212Y0136842D01*
X0075877Y0137177D01*
X0075466Y0137414D01*
X0075009Y0137537D01*
X0073000Y0137537D01*
X0073000Y0134359D01*
X0073000Y0134359D01*
X0073000Y0137537D01*
X0070991Y0137537D01*
X0070534Y0137414D01*
X0070312Y0137286D01*
X0070312Y0139005D01*
X0070189Y0139463D01*
X0069952Y0139874D01*
X0069617Y0140209D01*
X0069207Y0140446D01*
X0068749Y0140568D01*
X0066531Y0140568D01*
X0066531Y0136984D01*
X0066162Y0136984D01*
X0066162Y0140568D01*
X0063944Y0140568D01*
X0063486Y0140446D01*
X0063076Y0140209D01*
X0062741Y0139874D01*
X0062723Y0139844D01*
X0062399Y0140168D01*
X0061854Y0140168D01*
X0061854Y0148431D01*
X0063306Y0148431D01*
X0067319Y0144524D01*
X0067319Y0143747D01*
X0067818Y0142541D01*
X0068741Y0141618D01*
X0069947Y0141119D01*
X0071253Y0141119D01*
X0072459Y0141618D01*
X0073382Y0142541D01*
X0073881Y0143747D01*
X0073881Y0145053D01*
X0073382Y0146259D01*
X0072459Y0147182D01*
X0071253Y0147681D01*
X0070384Y0147681D01*
X0064912Y0153009D01*
X0064912Y0154348D01*
X0064092Y0155168D01*
X0058601Y0155168D01*
X0058000Y0154567D01*
X0057399Y0155168D01*
X0051908Y0155168D01*
X0051088Y0154348D01*
X0051088Y0151862D01*
X0045200Y0157751D01*
X0045200Y0160833D01*
X0049879Y0160833D01*
X0050699Y0161653D01*
X0050699Y0169900D01*
X0049879Y0170720D01*
X0036121Y0170720D01*
X0035301Y0169900D01*
X0035301Y0161653D01*
X0036121Y0160833D01*
X0040800Y0160833D01*
X0040800Y0155928D01*
X0049146Y0147582D01*
X0049146Y0140168D01*
X0048601Y0140168D01*
X0048000Y0139567D01*
X0047399Y0140168D01*
X0046854Y0140168D01*
X0046854Y0146058D01*
X0046281Y0146630D01*
X0046281Y0147453D01*
X0045782Y0148659D01*
X0044859Y0149582D01*
X0043653Y0150081D01*
X0042347Y0150081D01*
X0041141Y0149582D01*
X0040218Y0148659D01*
X0039936Y0147976D01*
X0027815Y0160097D01*
X0028100Y0160786D01*
X0028100Y0162814D01*
X0027324Y0164689D01*
X0025889Y0166124D01*
X0024256Y0166800D01*
X0025889Y0167476D01*
X0027324Y0168911D01*
X0028100Y0170786D01*
X0028100Y0172814D01*
X0027324Y0174689D01*
X0025889Y0176124D01*
X0024763Y0176590D01*
X0025111Y0176703D01*
X0025883Y0177096D01*
X0026583Y0177605D01*
X0027195Y0178217D01*
X0027704Y0178917D01*
X0028097Y0179689D01*
X0028365Y0180512D01*
X0028500Y0181367D01*
X0028500Y0181600D01*
X0023200Y0181600D01*
X0023200Y0182000D01*
X0022800Y0182000D01*
X0022800Y0191600D01*
X0023200Y0191600D01*
X0023200Y0192000D01*
X0022800Y0192000D01*
X0022800Y0197300D01*
X0022567Y0197300D01*
X0021712Y0197165D01*
X0020889Y0196897D01*
X0020117Y0196504D01*
X0019417Y0195995D01*
X0018805Y0195383D01*
X0018296Y0194683D01*
X0017903Y0193911D01*
X0017635Y0193088D01*
X0017500Y0192233D01*
X0017500Y0192000D01*
X0022800Y0192000D01*
X0022800Y0191600D01*
X0017500Y0191600D01*
X0017500Y0191367D01*
X0017635Y0190512D01*
X0017903Y0189689D01*
X0018296Y0188917D01*
X0018805Y0188217D01*
X0019417Y0187605D01*
X0020117Y0187096D01*
X0020698Y0186800D01*
X0020117Y0186504D01*
X0019417Y0185995D01*
X0018805Y0185383D01*
X0018296Y0184683D01*
X0017903Y0183911D01*
X0017635Y0183088D01*
X0017500Y0182233D01*
X0017500Y0182000D01*
X0022800Y0182000D01*
X0022800Y0181600D01*
X0017500Y0181600D01*
X0017500Y0181367D01*
X0017635Y0180512D01*
X0017903Y0179689D01*
X0018296Y0178917D01*
X0018805Y0178217D01*
X0019417Y0177605D01*
X0020117Y0177096D01*
X0020889Y0176703D01*
X0021237Y0176590D01*
X0020111Y0176124D01*
X0018676Y0174689D01*
X0017900Y0172814D01*
X0017900Y0170786D01*
X0018676Y0168911D01*
X0020111Y0167476D01*
X0021744Y0166800D01*
X0020111Y0166124D01*
X0018676Y0164689D01*
X0017900Y0162814D01*
X0017900Y0160786D01*
X0018676Y0158911D01*
X0020111Y0157476D01*
X0021744Y0156800D01*
X0020111Y0156124D01*
X0018676Y0154689D01*
X0017900Y0152814D01*
X0017900Y0150786D01*
X0018676Y0148911D01*
X0020111Y0147476D01*
X0021744Y0146800D01*
X0020111Y0146124D01*
X0018676Y0144689D01*
X0017900Y0142814D01*
X0017900Y0140786D01*
X0018676Y0138911D01*
X0020111Y0137476D01*
X0021503Y0136900D01*
X0018720Y0136900D01*
X0017900Y0136080D01*
X0017900Y0127520D01*
X0018720Y0126700D01*
X0021503Y0126700D01*
X0020111Y0126124D01*
X0018676Y0124689D01*
X0017900Y0122814D01*
X0017900Y0120786D01*
X0018676Y0118911D01*
X0020111Y0117476D01*
X0021744Y0116800D01*
X0020111Y0116124D01*
X0018676Y0114689D01*
X0017900Y0112814D01*
X0017900Y0110786D01*
X0018676Y0108911D01*
X0020111Y0107476D01*
X0021237Y0107010D01*
X0020889Y0106897D01*
X0020117Y0106504D01*
X0019417Y0105995D01*
X0018805Y0105383D01*
X0018296Y0104683D01*
X0017903Y0103911D01*
X0017635Y0103088D01*
X0017500Y0102233D01*
X0017500Y0102000D01*
X0022800Y0102000D01*
X0022800Y0101600D01*
X0023200Y0101600D01*
X0023200Y0102000D01*
X0028500Y0102000D01*
X0028500Y0102233D01*
X0028365Y0103088D01*
X0028251Y0103438D01*
X0042439Y0089250D01*
X0044261Y0089250D01*
X0048700Y0089250D01*
X0048700Y0081250D01*
X0028100Y0081250D01*
X0028100Y0082814D01*
X0027324Y0084689D01*
X0025889Y0086124D01*
X0024763Y0086590D01*
X0025111Y0086703D01*
X0025883Y0087096D01*
X0026583Y0087605D01*
X0027195Y0088217D01*
X0027704Y0088917D01*
X0028097Y0089689D01*
X0028365Y0090512D01*
X0028500Y0091367D01*
X0028500Y0091600D01*
X0023200Y0091600D01*
X0023200Y0092000D01*
X0022800Y0092000D01*
X0022800Y0101600D01*
X0017500Y0101600D01*
X0017500Y0101367D01*
X0017635Y0100512D01*
X0017903Y0099689D01*
X0018296Y0098917D01*
X0018805Y0098217D01*
X0019417Y0097605D01*
X0020117Y0097096D01*
X0020698Y0096800D01*
X0020117Y0096504D01*
X0019417Y0095995D01*
X0018805Y0095383D01*
X0018296Y0094683D01*
X0017903Y0093911D01*
X0017635Y0093088D01*
X0017500Y0092233D01*
X0017500Y0092000D01*
X0022800Y0092000D01*
X0022800Y0091600D01*
X0017500Y0091600D01*
X0017500Y0091367D01*
X0017635Y0090512D01*
X0017903Y0089689D01*
X0018296Y0088917D01*
X0018805Y0088217D01*
X0019417Y0087605D01*
X0020117Y0087096D01*
X0020889Y0086703D01*
X0021237Y0086590D01*
X0020111Y0086124D01*
X0018676Y0084689D01*
X0017900Y0082814D01*
X0017900Y0080786D01*
X0018676Y0078911D01*
X0020111Y0077476D01*
X0021744Y0076800D01*
X0020111Y0076124D01*
X0018676Y0074689D01*
X0017900Y0072814D01*
X0017900Y0070786D01*
X0018676Y0068911D01*
X0020111Y0067476D01*
X0021744Y0066800D01*
X0020111Y0066124D01*
X0018676Y0064689D01*
X0017900Y0062814D01*
X0017900Y0060786D01*
X0018676Y0058911D01*
X0020111Y0057476D01*
X0021744Y0056800D01*
X0020111Y0056124D01*
X0018676Y0054689D01*
X0017900Y0052814D01*
X0017900Y0050786D01*
X0018676Y0048911D01*
X0020111Y0047476D01*
X0021503Y0046900D01*
X0018720Y0046900D01*
X0017900Y0046080D01*
X0017900Y0037520D01*
X0018720Y0036700D01*
X0021503Y0036700D01*
X0020111Y0036124D01*
X0018676Y0034689D01*
X0017900Y0032814D01*
X0017900Y0030786D01*
X0018676Y0028911D01*
X0020111Y0027476D01*
X0021744Y0026800D01*
X0020111Y0026124D01*
X0018676Y0024689D01*
X0017900Y0022814D01*
X0017900Y0020786D01*
X0018676Y0018911D01*
X0020111Y0017476D01*
X0021744Y0016800D01*
X0020111Y0016124D01*
X0018676Y0014689D01*
X0017900Y0012814D01*
X0017900Y0010786D01*
X0018676Y0008911D01*
X0020111Y0007476D01*
X0021986Y0006700D01*
X0024014Y0006700D01*
X0025889Y0007476D01*
X0027324Y0008911D01*
X0028100Y0010786D01*
X0028100Y0012814D01*
X0027815Y0013503D01*
X0050200Y0035889D01*
X0050200Y0043589D01*
X0059111Y0052500D01*
X0065589Y0052500D01*
X0063257Y0050168D01*
X0061908Y0050168D01*
X0061088Y0049348D01*
X0061088Y0044252D01*
X0061908Y0043431D01*
X0062454Y0043431D01*
X0062454Y0040168D01*
X0061908Y0040168D01*
X0061088Y0039348D01*
X0061088Y0039000D01*
X0060440Y0039000D01*
X0059859Y0039582D01*
X0058653Y0040081D01*
X0057347Y0040081D01*
X0056141Y0039582D01*
X0055218Y0038659D01*
X0054719Y0037453D01*
X0054719Y0036147D01*
X0055218Y0034941D01*
X0056141Y0034018D01*
X0057347Y0033519D01*
X0058653Y0033519D01*
X0059859Y0034018D01*
X0060440Y0034600D01*
X0061088Y0034600D01*
X0061088Y0034252D01*
X0061908Y0033431D01*
X0067399Y0033431D01*
X0067723Y0033756D01*
X0067741Y0033726D01*
X0068067Y0033400D01*
X0057337Y0033400D01*
X0056400Y0032463D01*
X0056400Y0011137D01*
X0057337Y0010200D01*
X0059174Y0010200D01*
X0059048Y0010074D01*
X0058811Y0009663D01*
X0058688Y0009205D01*
X0058688Y0007184D01*
X0062469Y0007184D01*
X0062469Y0006816D01*
X0058688Y0006816D01*
X0058688Y0004795D01*
X0058811Y0004337D01*
X0058948Y0004100D01*
X0008000Y0004100D01*
X0008000Y0206800D01*
X0150800Y0207500D01*
X0150800Y0140084D01*
X0149124Y0141759D01*
X0149124Y0148896D01*
X0148666Y0149354D01*
X0150200Y0150889D01*
X0150200Y0162711D01*
X0145200Y0167711D01*
X0145200Y0172711D01*
X0143911Y0174000D01*
X0141281Y0176630D01*
X0141281Y0177453D01*
X0140782Y0178659D01*
X0139859Y0179582D01*
X0138653Y0180081D01*
X0137347Y0180081D01*
X0136141Y0179582D01*
X0135218Y0178659D01*
X0134719Y0177453D01*
X0134719Y0176147D01*
X0135218Y0174941D01*
X0136141Y0174018D01*
X0137347Y0173519D01*
X0138170Y0173519D01*
X0140619Y0171070D01*
X0137267Y0171070D01*
X0136446Y0170250D01*
X0136446Y0165710D01*
X0135498Y0166658D01*
X0133392Y0167531D01*
X0127078Y0167531D01*
X0119926Y0174682D01*
X0118676Y0175200D01*
X0116812Y0175200D01*
X0115889Y0176124D01*
X0114014Y0176900D01*
X0111986Y0176900D01*
X0110111Y0176124D01*
X0108676Y0174689D01*
X0107900Y0172814D01*
X0107900Y0170786D01*
X0108676Y0168911D01*
X0110111Y0167476D01*
X0111237Y0167010D01*
X0110889Y0166897D01*
X0110117Y0166504D01*
X0109417Y0165995D01*
X0108805Y0165383D01*
X0108296Y0164683D01*
X0107903Y0163911D01*
X0107635Y0163088D01*
X0107500Y0162233D01*
X0107500Y0162000D01*
X0112800Y0162000D01*
X0112800Y0161600D01*
X0107500Y0161600D01*
X0107500Y0161367D01*
X0107635Y0160512D01*
X0107903Y0159689D01*
X0108296Y0158917D01*
X0108805Y0158217D01*
X0109417Y0157605D01*
X0110117Y0157096D01*
X0110889Y0156703D01*
X0111237Y0156590D01*
X0110111Y0156124D01*
X0108676Y0154689D01*
X0107900Y0152814D01*
X0107900Y0150786D01*
X0108676Y0148911D01*
X0110111Y0147476D01*
X0111986Y0146700D01*
X0114014Y0146700D01*
X0115889Y0147476D01*
X0117324Y0148911D01*
X0117609Y0149600D01*
X0120161Y0149600D01*
X0123332Y0146429D01*
X0123332Y0144686D01*
X0124152Y0143866D01*
X0126407Y0143866D01*
X0130800Y0140678D01*
X0130800Y0121599D01*
X0127550Y0124850D01*
X0127550Y0129624D01*
X0126730Y0130444D01*
X0122467Y0130444D01*
X0121281Y0131630D01*
X0121281Y0132453D01*
X0121155Y0132756D01*
X0122422Y0132756D01*
X0122422Y0136734D01*
X0118050Y0136734D01*
X0118050Y0135081D01*
X0117347Y0135081D01*
X0116141Y0134582D01*
X0115218Y0133659D01*
X0114719Y0132453D01*
X0114719Y0131147D01*
X0115218Y0129941D01*
X0116141Y0129018D01*
X0117347Y0128519D01*
X0118170Y0128519D01*
X0118450Y0128238D01*
X0118450Y0122952D01*
X0119270Y0122132D01*
X0124045Y0122132D01*
X0125805Y0120372D01*
X0125441Y0120372D01*
X0125441Y0116800D01*
X0125441Y0116800D01*
X0125441Y0113228D01*
X0125441Y0111800D01*
X0125441Y0111800D01*
X0125441Y0116800D01*
X0125441Y0116800D01*
X0125441Y0120372D01*
X0123826Y0120372D01*
X0123368Y0120249D01*
X0122958Y0120012D01*
X0122623Y0119677D01*
X0122386Y0119266D01*
X0122263Y0118809D01*
X0122263Y0116800D01*
X0125441Y0116800D01*
X0125441Y0116800D01*
X0122263Y0116800D01*
X0122263Y0114791D01*
X0122386Y0114334D01*
X0122405Y0114300D01*
X0122386Y0114266D01*
X0122263Y0113809D01*
X0122263Y0111800D01*
X0125441Y0111800D01*
X0125441Y0111800D01*
X0122263Y0111800D01*
X0122263Y0109791D01*
X0122386Y0109334D01*
X0122623Y0108923D01*
X0122663Y0108883D01*
X0122663Y0104448D01*
X0123115Y0103997D01*
X0122472Y0103355D01*
X0122472Y0099045D01*
X0123293Y0098225D01*
X0127602Y0098225D01*
X0128176Y0098799D01*
X0128338Y0098520D01*
X0128673Y0098185D01*
X0129083Y0097948D01*
X0129541Y0097825D01*
X0131353Y0097825D01*
X0133165Y0097825D01*
X0133622Y0097948D01*
X0134033Y0098185D01*
X0134368Y0098520D01*
X0134605Y0098930D01*
X0134728Y0099388D01*
X0134728Y0101200D01*
X0134728Y0103012D01*
X0134605Y0103470D01*
X0134368Y0103880D01*
X0134033Y0104215D01*
X0133622Y0104452D01*
X0133337Y0104529D01*
X0133337Y0104600D01*
X0133911Y0104600D01*
X0140563Y0111251D01*
X0141350Y0110526D01*
X0141350Y0108470D01*
X0142170Y0107650D01*
X0146430Y0107650D01*
X0147250Y0108470D01*
X0147250Y0113130D01*
X0146430Y0113950D01*
X0144127Y0113950D01*
X0143676Y0114365D01*
X0143911Y0114600D01*
X0145200Y0115889D01*
X0145200Y0123884D01*
X0148304Y0123884D01*
X0149124Y0124704D01*
X0149124Y0132951D01*
X0148304Y0133771D01*
X0137696Y0133771D01*
X0136876Y0132951D01*
X0136876Y0130142D01*
X0136472Y0129739D01*
X0136472Y0127916D01*
X0136876Y0127513D01*
X0136876Y0124704D01*
X0137696Y0123884D01*
X0140800Y0123884D01*
X0140800Y0118614D01*
X0140782Y0118659D01*
X0139859Y0119582D01*
X0138653Y0120081D01*
X0137830Y0120081D01*
X0135200Y0122711D01*
X0135200Y0141086D01*
X0135316Y0141245D01*
X0135200Y0141974D01*
X0135200Y0142711D01*
X0135061Y0142851D01*
X0135030Y0143045D01*
X0134450Y0143466D01*
X0135027Y0143466D01*
X0135027Y0146900D01*
X0131987Y0146900D01*
X0131987Y0145253D01*
X0128613Y0147702D01*
X0128613Y0149114D01*
X0127792Y0149934D01*
X0126050Y0149934D01*
X0121984Y0154000D01*
X0117609Y0154000D01*
X0117324Y0154689D01*
X0115889Y0156124D01*
X0114763Y0156590D01*
X0115111Y0156703D01*
X0115883Y0157096D01*
X0116583Y0157605D01*
X0117195Y0158217D01*
X0117704Y0158917D01*
X0118097Y0159689D01*
X0118365Y0160512D01*
X0118500Y0161367D01*
X0118500Y0161600D01*
X0113200Y0161600D01*
X0113200Y0162000D01*
X0118500Y0162000D01*
X0118500Y0162233D01*
X0118365Y0163088D01*
X0118097Y0163911D01*
X0117704Y0164683D01*
X0117195Y0165383D01*
X0116583Y0165995D01*
X0115883Y0166504D01*
X0115111Y0166897D01*
X0114763Y0167010D01*
X0115889Y0167476D01*
X0116702Y0168290D01*
X0121036Y0163955D01*
X0120616Y0162940D01*
X0120616Y0160660D01*
X0121488Y0158554D01*
X0123100Y0156942D01*
X0125207Y0156069D01*
X0133392Y0156069D01*
X0135498Y0156942D01*
X0136046Y0157490D01*
X0136046Y0156083D01*
X0140615Y0156083D01*
X0140615Y0155714D01*
X0140983Y0155714D01*
X0140983Y0152130D01*
X0143989Y0152130D01*
X0144447Y0152253D01*
X0144857Y0152490D01*
X0145192Y0152825D01*
X0145429Y0153235D01*
X0145552Y0153693D01*
X0145552Y0155714D01*
X0140984Y0155714D01*
X0140984Y0156083D01*
X0145552Y0156083D01*
X0145552Y0158104D01*
X0145429Y0158562D01*
X0145192Y0158972D01*
X0145025Y0159140D01*
X0145136Y0159252D01*
X0145136Y0161553D01*
X0145800Y0160889D01*
X0145800Y0152711D01*
X0142804Y0149716D01*
X0137696Y0149716D01*
X0137664Y0149684D01*
X0137373Y0149974D01*
X0136962Y0150211D01*
X0136505Y0150334D01*
X0135028Y0150334D01*
X0135028Y0146900D01*
X0135027Y0146900D01*
X0135027Y0146900D01*
X0131987Y0146900D01*
X0131987Y0148771D01*
X0132110Y0149229D01*
X0132347Y0149639D01*
X0132682Y0149974D01*
X0133093Y0150211D01*
X0133550Y0150334D01*
X0135027Y0150334D01*
X0135027Y0146900D01*
X0135028Y0146900D01*
X0135027Y0146577D02*
X0135028Y0146577D01*
X0135027Y0148175D02*
X0135028Y0148175D01*
X0135027Y0149774D02*
X0135028Y0149774D01*
X0137573Y0149774D02*
X0142862Y0149774D01*
X0144461Y0151372D02*
X0124611Y0151372D01*
X0123013Y0152971D02*
X0136322Y0152971D01*
X0136406Y0152825D02*
X0136741Y0152490D01*
X0137152Y0152253D01*
X0137609Y0152130D01*
X0140615Y0152130D01*
X0140615Y0155714D01*
X0136046Y0155714D01*
X0136046Y0153693D01*
X0136169Y0153235D01*
X0136406Y0152825D01*
X0136046Y0154569D02*
X0117373Y0154569D01*
X0115782Y0156168D02*
X0124969Y0156168D01*
X0122276Y0157766D02*
X0116744Y0157766D01*
X0117932Y0159365D02*
X0121152Y0159365D01*
X0120616Y0160963D02*
X0118436Y0160963D01*
X0118448Y0162562D02*
X0120616Y0162562D01*
X0120831Y0164160D02*
X0117970Y0164160D01*
X0116819Y0165759D02*
X0119233Y0165759D01*
X0117634Y0167357D02*
X0115601Y0167357D01*
X0110399Y0167357D02*
X0101800Y0167357D01*
X0101800Y0165759D02*
X0109181Y0165759D01*
X0108030Y0164160D02*
X0101800Y0164160D01*
X0101352Y0162562D02*
X0107552Y0162562D01*
X0107564Y0160963D02*
X0099633Y0160963D01*
X0096367Y0160963D02*
X0095275Y0160963D01*
X0093676Y0159365D02*
X0108068Y0159365D01*
X0109256Y0157766D02*
X0092950Y0157766D01*
X0092950Y0156168D02*
X0110218Y0156168D01*
X0108627Y0154569D02*
X0092950Y0154569D01*
X0092950Y0152971D02*
X0107965Y0152971D01*
X0107900Y0151372D02*
X0092950Y0151372D01*
X0092950Y0149774D02*
X0108319Y0149774D01*
X0109412Y0148175D02*
X0092950Y0148175D01*
X0092950Y0146577D02*
X0099437Y0146577D01*
X0098619Y0144978D02*
X0092950Y0144978D01*
X0092950Y0143380D02*
X0097768Y0143380D01*
X0096170Y0141781D02*
X0092950Y0141781D01*
X0092950Y0140183D02*
X0094954Y0140183D01*
X0093588Y0138584D02*
X0092950Y0138584D01*
X0092950Y0136986D02*
X0093588Y0136986D01*
X0093588Y0135387D02*
X0092950Y0135387D01*
X0092950Y0133789D02*
X0094051Y0133789D01*
X0094954Y0132190D02*
X0092950Y0132190D01*
X0092950Y0130592D02*
X0094954Y0130592D01*
X0093588Y0128993D02*
X0092950Y0128993D01*
X0092950Y0127395D02*
X0093588Y0127395D01*
X0093588Y0125796D02*
X0092950Y0125796D01*
X0092950Y0124198D02*
X0093642Y0124198D01*
X0092950Y0122599D02*
X0094750Y0122599D01*
X0093850Y0121001D02*
X0093850Y0121001D01*
X0093850Y0119402D02*
X0093850Y0119402D01*
X0093850Y0117803D02*
X0093850Y0117803D01*
X0093850Y0117350D02*
X0093850Y0113200D01*
X0093850Y0117350D01*
X0093850Y0117350D01*
X0093850Y0116205D02*
X0093850Y0116205D01*
X0093850Y0114606D02*
X0093850Y0114606D01*
X0090750Y0117350D02*
X0090750Y0159550D01*
X0098000Y0166800D01*
X0100953Y0169753D01*
X0100953Y0186229D01*
X0104853Y0186539D02*
X0150800Y0186539D01*
X0150800Y0184941D02*
X0104853Y0184941D01*
X0104853Y0183342D02*
X0150800Y0183342D01*
X0150800Y0181744D02*
X0104853Y0181744D01*
X0104349Y0180145D02*
X0150800Y0180145D01*
X0150800Y0178547D02*
X0140828Y0178547D01*
X0141281Y0176948D02*
X0150800Y0176948D01*
X0150800Y0175350D02*
X0142561Y0175350D01*
X0144160Y0173751D02*
X0150800Y0173751D01*
X0150800Y0172153D02*
X0145200Y0172153D01*
X0145200Y0170554D02*
X0150800Y0170554D01*
X0150800Y0168956D02*
X0145200Y0168956D01*
X0145554Y0167357D02*
X0150800Y0167357D01*
X0150800Y0165759D02*
X0147152Y0165759D01*
X0148751Y0164160D02*
X0150800Y0164160D01*
X0150800Y0162562D02*
X0150200Y0162562D01*
X0150200Y0160963D02*
X0150800Y0160963D01*
X0150800Y0159365D02*
X0150200Y0159365D01*
X0150200Y0157766D02*
X0150800Y0157766D01*
X0150800Y0156168D02*
X0150200Y0156168D01*
X0150200Y0154569D02*
X0150800Y0154569D01*
X0150800Y0152971D02*
X0150200Y0152971D01*
X0150200Y0151372D02*
X0150800Y0151372D01*
X0150800Y0149774D02*
X0149085Y0149774D01*
X0149124Y0148175D02*
X0150800Y0148175D01*
X0150800Y0146577D02*
X0149124Y0146577D01*
X0149124Y0144978D02*
X0150800Y0144978D01*
X0150800Y0143380D02*
X0149124Y0143380D01*
X0149124Y0141781D02*
X0150800Y0141781D01*
X0150800Y0140183D02*
X0150701Y0140183D01*
X0147676Y0136986D02*
X0135200Y0136986D01*
X0135200Y0138584D02*
X0146077Y0138584D01*
X0149274Y0135387D02*
X0135200Y0135387D01*
X0135200Y0133789D02*
X0150800Y0133789D01*
X0150800Y0132190D02*
X0149124Y0132190D01*
X0149124Y0130592D02*
X0150800Y0130592D01*
X0150800Y0128993D02*
X0149124Y0128993D01*
X0149124Y0127395D02*
X0150800Y0127395D01*
X0150800Y0125796D02*
X0149124Y0125796D01*
X0148618Y0124198D02*
X0150800Y0124198D01*
X0150800Y0122599D02*
X0145200Y0122599D01*
X0145200Y0121001D02*
X0150800Y0121001D01*
X0150800Y0119402D02*
X0145200Y0119402D01*
X0145200Y0117803D02*
X0150800Y0117803D01*
X0150800Y0116205D02*
X0145200Y0116205D01*
X0143918Y0114606D02*
X0150800Y0114606D01*
X0148950Y0113008D02*
X0147250Y0113008D01*
X0147250Y0111409D02*
X0148950Y0111409D01*
X0148950Y0109811D02*
X0147250Y0109811D01*
X0146992Y0108212D02*
X0149208Y0108212D01*
X0150800Y0106614D02*
X0140026Y0106614D01*
X0141131Y0105015D02*
X0145150Y0105015D01*
X0148100Y0102800D02*
X0139200Y0102800D01*
X0138000Y0104000D01*
X0135541Y0101818D02*
X0134728Y0101818D01*
X0134728Y0101200D02*
X0131353Y0101200D01*
X0131353Y0101200D01*
X0134728Y0101200D01*
X0134728Y0100220D02*
X0145400Y0100220D01*
X0145559Y0095372D02*
X0143944Y0095372D01*
X0143486Y0095249D01*
X0143076Y0095012D01*
X0142741Y0094677D01*
X0142723Y0094647D01*
X0142399Y0094972D01*
X0138483Y0094972D01*
X0137663Y0094152D01*
X0137663Y0094000D01*
X0133882Y0094000D01*
X0133107Y0094775D01*
X0128798Y0094775D01*
X0128000Y0093977D01*
X0127202Y0094775D01*
X0122893Y0094775D01*
X0122072Y0093955D01*
X0122072Y0093650D01*
X0117300Y0093650D01*
X0117300Y0111730D01*
X0116480Y0112550D01*
X0110620Y0112550D01*
X0109800Y0111730D01*
X0109800Y0061870D01*
X0110620Y0061050D01*
X0116480Y0061050D01*
X0117300Y0061870D01*
X0117300Y0079389D01*
X0120800Y0075889D01*
X0122089Y0074600D01*
X0122118Y0074600D01*
X0122893Y0073825D01*
X0127202Y0073825D01*
X0128000Y0074623D01*
X0128798Y0073825D01*
X0133107Y0073825D01*
X0133882Y0074600D01*
X0137663Y0074600D01*
X0137663Y0074448D01*
X0138483Y0073628D01*
X0142399Y0073628D01*
X0142723Y0073953D01*
X0142741Y0073923D01*
X0143076Y0073588D01*
X0143486Y0073351D01*
X0143944Y0073228D01*
X0145559Y0073228D01*
X0145559Y0076800D01*
X0145559Y0081800D01*
X0145559Y0086800D01*
X0145559Y0091800D01*
X0145559Y0095372D01*
X0145559Y0091800D01*
X0145559Y0091800D01*
X0145559Y0091800D01*
X0145559Y0088228D01*
X0145559Y0086800D01*
X0145559Y0086800D01*
X0145559Y0086800D01*
X0145559Y0085372D01*
X0145559Y0081800D01*
X0145559Y0081800D01*
X0145559Y0081800D01*
X0145559Y0080372D01*
X0145559Y0076800D01*
X0145559Y0076800D01*
X0145559Y0076800D01*
X0145559Y0073228D01*
X0147174Y0073228D01*
X0147632Y0073351D01*
X0148042Y0073588D01*
X0148377Y0073923D01*
X0148614Y0074334D01*
X0148737Y0074791D01*
X0148737Y0076800D01*
X0148737Y0078809D01*
X0148614Y0079266D01*
X0148595Y0079300D01*
X0148614Y0079334D01*
X0148737Y0079791D01*
X0148737Y0081800D01*
X0148737Y0083809D01*
X0148614Y0084266D01*
X0148595Y0084300D01*
X0148614Y0084334D01*
X0148737Y0084791D01*
X0148737Y0086800D01*
X0148737Y0088809D01*
X0148614Y0089266D01*
X0148595Y0089300D01*
X0148614Y0089334D01*
X0148737Y0089791D01*
X0148737Y0091800D01*
X0148737Y0093809D01*
X0148614Y0094266D01*
X0148377Y0094677D01*
X0148042Y0095012D01*
X0147632Y0095249D01*
X0147174Y0095372D01*
X0145559Y0095372D01*
X0145559Y0093826D02*
X0145559Y0093826D01*
X0145559Y0092227D02*
X0145559Y0092227D01*
X0145559Y0091800D02*
X0148737Y0091800D01*
X0145559Y0091800D01*
X0145559Y0091800D01*
X0145559Y0090629D02*
X0145559Y0090629D01*
X0145559Y0089030D02*
X0145559Y0089030D01*
X0145559Y0087432D02*
X0145559Y0087432D01*
X0145559Y0086800D02*
X0148737Y0086800D01*
X0145559Y0086800D01*
X0145559Y0086800D01*
X0145559Y0085833D02*
X0145559Y0085833D01*
X0145559Y0084235D02*
X0145559Y0084235D01*
X0145559Y0082636D02*
X0145559Y0082636D01*
X0145559Y0081800D02*
X0148737Y0081800D01*
X0145559Y0081800D01*
X0145559Y0081800D01*
X0145559Y0081038D02*
X0145559Y0081038D01*
X0145559Y0079439D02*
X0145559Y0079439D01*
X0145559Y0077841D02*
X0145559Y0077841D01*
X0145559Y0076800D02*
X0148737Y0076800D01*
X0145559Y0076800D01*
X0145559Y0076800D01*
X0145559Y0076242D02*
X0145559Y0076242D01*
X0145559Y0074644D02*
X0145559Y0074644D01*
X0148697Y0074644D02*
X0150800Y0074644D01*
X0150800Y0076242D02*
X0148737Y0076242D01*
X0148737Y0077841D02*
X0150800Y0077841D01*
X0150800Y0079439D02*
X0148643Y0079439D01*
X0148737Y0081038D02*
X0150800Y0081038D01*
X0150800Y0082636D02*
X0148737Y0082636D01*
X0148623Y0084235D02*
X0150800Y0084235D01*
X0150800Y0085833D02*
X0148737Y0085833D01*
X0148737Y0087432D02*
X0150800Y0087432D01*
X0150800Y0089030D02*
X0148678Y0089030D01*
X0148737Y0090629D02*
X0150800Y0090629D01*
X0150800Y0092227D02*
X0148737Y0092227D01*
X0148732Y0093826D02*
X0150800Y0093826D01*
X0150800Y0095424D02*
X0117300Y0095424D01*
X0117300Y0093826D02*
X0122072Y0093826D01*
X0124697Y0091450D02*
X0125047Y0091800D01*
X0124697Y0091450D02*
X0113550Y0091450D01*
X0113550Y0088350D02*
X0121450Y0088350D01*
X0123000Y0086800D01*
X0125047Y0086800D01*
X0125047Y0081800D02*
X0123000Y0081800D01*
X0119550Y0085250D01*
X0113550Y0085250D01*
X0113550Y0082150D02*
X0117650Y0082150D01*
X0123000Y0076800D01*
X0125047Y0076800D01*
X0122045Y0074644D02*
X0117300Y0074644D01*
X0117300Y0076242D02*
X0120447Y0076242D01*
X0118848Y0077841D02*
X0117300Y0077841D01*
X0117300Y0073045D02*
X0150800Y0073045D01*
X0150800Y0071447D02*
X0117300Y0071447D01*
X0117300Y0069848D02*
X0150800Y0069848D01*
X0150800Y0068250D02*
X0117300Y0068250D01*
X0117300Y0066651D02*
X0150800Y0066651D01*
X0150800Y0065053D02*
X0117300Y0065053D01*
X0117300Y0063454D02*
X0150800Y0063454D01*
X0150800Y0061856D02*
X0117285Y0061856D01*
X0109814Y0061856D02*
X0071200Y0061856D01*
X0071200Y0060257D02*
X0073420Y0060257D01*
X0072201Y0063454D02*
X0109800Y0063454D01*
X0109800Y0065053D02*
X0072240Y0065053D01*
X0071289Y0066651D02*
X0109800Y0066651D01*
X0109800Y0068250D02*
X0065200Y0068250D01*
X0065200Y0069848D02*
X0109800Y0069848D01*
X0109800Y0071447D02*
X0065200Y0071447D01*
X0065200Y0073045D02*
X0109800Y0073045D01*
X0109800Y0074644D02*
X0065200Y0074644D01*
X0065200Y0076242D02*
X0109800Y0076242D01*
X0109800Y0077841D02*
X0065200Y0077841D01*
X0065200Y0079439D02*
X0109800Y0079439D01*
X0109800Y0081038D02*
X0065200Y0081038D01*
X0065200Y0082636D02*
X0109800Y0082636D01*
X0109800Y0084235D02*
X0065200Y0084235D01*
X0065200Y0085833D02*
X0109800Y0085833D01*
X0109800Y0087432D02*
X0065200Y0087432D01*
X0065200Y0089030D02*
X0109800Y0089030D01*
X0109800Y0090629D02*
X0065200Y0090629D01*
X0065200Y0092227D02*
X0109800Y0092227D01*
X0109800Y0093826D02*
X0065200Y0093826D01*
X0065200Y0095424D02*
X0109800Y0095424D01*
X0109800Y0097023D02*
X0065200Y0097023D01*
X0065200Y0098621D02*
X0109800Y0098621D01*
X0109800Y0100220D02*
X0065200Y0100220D01*
X0065200Y0101818D02*
X0109800Y0101818D01*
X0109800Y0103417D02*
X0065200Y0103417D01*
X0065200Y0105015D02*
X0109800Y0105015D01*
X0109800Y0106614D02*
X0065200Y0106614D01*
X0064699Y0108212D02*
X0109800Y0108212D01*
X0109800Y0109811D02*
X0063100Y0109811D01*
X0061502Y0111409D02*
X0109800Y0111409D01*
X0108750Y0114606D02*
X0122313Y0114606D01*
X0122263Y0113008D02*
X0059903Y0113008D01*
X0062850Y0113200D02*
X0062850Y0117350D01*
X0062850Y0117350D01*
X0062850Y0121500D01*
X0063789Y0121500D01*
X0065320Y0123031D01*
X0063944Y0123031D01*
X0063486Y0123154D01*
X0063076Y0123391D01*
X0062741Y0123726D01*
X0062723Y0123756D01*
X0062399Y0123431D01*
X0061950Y0123431D01*
X0061950Y0121500D01*
X0062850Y0121500D01*
X0062850Y0117350D01*
X0062850Y0113200D01*
X0062850Y0114606D02*
X0062850Y0114606D01*
X0062850Y0116205D02*
X0062850Y0116205D01*
X0062850Y0117350D02*
X0062850Y0117350D01*
X0062850Y0117803D02*
X0062850Y0117803D01*
X0062850Y0119402D02*
X0062850Y0119402D01*
X0062850Y0121001D02*
X0062850Y0121001D01*
X0061950Y0122599D02*
X0064888Y0122599D01*
X0065950Y0120550D02*
X0067900Y0122500D01*
X0070800Y0122500D01*
X0073000Y0124700D01*
X0073000Y0129241D01*
X0070648Y0126463D02*
X0070127Y0126984D01*
X0066531Y0126984D01*
X0066531Y0126616D01*
X0070312Y0126616D01*
X0070312Y0125123D01*
X0070800Y0125611D01*
X0070800Y0126463D01*
X0070648Y0126463D01*
X0070800Y0125796D02*
X0070312Y0125796D01*
X0069828Y0129998D02*
X0069617Y0130209D01*
X0069207Y0130446D01*
X0068749Y0130568D01*
X0066531Y0130568D01*
X0066531Y0126984D01*
X0066162Y0126984D01*
X0066162Y0130568D01*
X0063944Y0130568D01*
X0063486Y0130446D01*
X0063076Y0130209D01*
X0062741Y0129874D01*
X0062723Y0129844D01*
X0062399Y0130168D01*
X0061854Y0130168D01*
X0061854Y0133431D01*
X0062399Y0133431D01*
X0062723Y0133756D01*
X0062741Y0133726D01*
X0063076Y0133391D01*
X0063486Y0133154D01*
X0063944Y0133031D01*
X0066162Y0133031D01*
X0066162Y0136616D01*
X0066531Y0136616D01*
X0066531Y0133031D01*
X0068749Y0133031D01*
X0069207Y0133154D01*
X0069428Y0133282D01*
X0069428Y0132744D01*
X0069551Y0132286D01*
X0069788Y0131876D01*
X0070123Y0131541D01*
X0070153Y0131523D01*
X0069828Y0131199D01*
X0069828Y0129998D01*
X0069828Y0130592D02*
X0061854Y0130592D01*
X0061854Y0132190D02*
X0069607Y0132190D01*
X0066531Y0133789D02*
X0066162Y0133789D01*
X0066162Y0135387D02*
X0066531Y0135387D01*
X0066531Y0136986D02*
X0066162Y0136986D01*
X0066162Y0138584D02*
X0066531Y0138584D01*
X0066531Y0140183D02*
X0066162Y0140183D01*
X0068579Y0141781D02*
X0061854Y0141781D01*
X0061854Y0140183D02*
X0063050Y0140183D01*
X0061854Y0143380D02*
X0067471Y0143380D01*
X0066853Y0144978D02*
X0061854Y0144978D01*
X0061854Y0146577D02*
X0065211Y0146577D01*
X0063569Y0148175D02*
X0061854Y0148175D01*
X0059654Y0150107D02*
X0061346Y0151800D01*
X0063000Y0151800D01*
X0070600Y0144400D01*
X0073063Y0146577D02*
X0079250Y0146577D01*
X0079250Y0148175D02*
X0069876Y0148175D01*
X0068235Y0149774D02*
X0079250Y0149774D01*
X0079250Y0151372D02*
X0066593Y0151372D01*
X0064951Y0152971D02*
X0078718Y0152971D01*
X0077119Y0154569D02*
X0064691Y0154569D01*
X0066367Y0160963D02*
X0060415Y0160963D01*
X0060201Y0160808D02*
X0060736Y0161196D01*
X0061204Y0161664D01*
X0061592Y0162199D01*
X0061892Y0162788D01*
X0062097Y0163416D01*
X0062200Y0164069D01*
X0062200Y0166800D01*
X0062200Y0169531D01*
X0062097Y0170184D01*
X0061892Y0170812D01*
X0061592Y0171401D01*
X0061204Y0171936D01*
X0060736Y0172404D01*
X0060201Y0172792D01*
X0059612Y0173092D01*
X0058984Y0173297D01*
X0058331Y0173400D01*
X0058000Y0173400D01*
X0058000Y0166800D01*
X0058000Y0166800D01*
X0062200Y0166800D01*
X0058000Y0166800D01*
X0058000Y0166800D01*
X0058000Y0166800D01*
X0053800Y0166800D01*
X0053800Y0169531D01*
X0053903Y0170184D01*
X0054108Y0170812D01*
X0054408Y0171401D01*
X0054796Y0171936D01*
X0055264Y0172404D01*
X0055799Y0172792D01*
X0056388Y0173092D01*
X0057016Y0173297D01*
X0057669Y0173400D01*
X0058000Y0173400D01*
X0058000Y0166800D01*
X0058000Y0160200D01*
X0058331Y0160200D01*
X0058984Y0160303D01*
X0059612Y0160508D01*
X0060201Y0160808D01*
X0061777Y0162562D02*
X0064648Y0162562D01*
X0064200Y0164160D02*
X0062200Y0164160D01*
X0062200Y0165759D02*
X0064200Y0165759D01*
X0064200Y0167357D02*
X0062200Y0167357D01*
X0062200Y0168956D02*
X0063320Y0168956D01*
X0063320Y0170554D02*
X0061976Y0170554D01*
X0060987Y0172153D02*
X0063320Y0172153D01*
X0063320Y0173751D02*
X0027712Y0173751D01*
X0028100Y0172153D02*
X0055013Y0172153D01*
X0054024Y0170554D02*
X0050044Y0170554D01*
X0050699Y0168956D02*
X0053800Y0168956D01*
X0053800Y0167357D02*
X0050699Y0167357D01*
X0050699Y0165759D02*
X0053800Y0165759D01*
X0053800Y0166800D02*
X0053800Y0164069D01*
X0053903Y0163416D01*
X0054108Y0162788D01*
X0054408Y0162199D01*
X0054796Y0161664D01*
X0055264Y0161196D01*
X0055799Y0160808D01*
X0056388Y0160508D01*
X0057016Y0160303D01*
X0057669Y0160200D01*
X0058000Y0160200D01*
X0058000Y0166800D01*
X0058000Y0166800D01*
X0053800Y0166800D01*
X0053800Y0164160D02*
X0050699Y0164160D01*
X0050699Y0162562D02*
X0054223Y0162562D01*
X0055585Y0160963D02*
X0050009Y0160963D01*
X0046783Y0156168D02*
X0075521Y0156168D01*
X0073922Y0157766D02*
X0045200Y0157766D01*
X0045200Y0159365D02*
X0072324Y0159365D01*
X0070725Y0160963D02*
X0069633Y0160963D01*
X0072152Y0165759D02*
X0074200Y0165759D01*
X0074200Y0167357D02*
X0071800Y0167357D01*
X0071800Y0168956D02*
X0074200Y0168956D01*
X0074448Y0170554D02*
X0071552Y0170554D01*
X0070421Y0172153D02*
X0075131Y0172153D01*
X0075131Y0173751D02*
X0067720Y0173751D01*
X0067720Y0175350D02*
X0075131Y0175350D01*
X0075131Y0176948D02*
X0067720Y0176948D01*
X0067720Y0178547D02*
X0075131Y0178547D01*
X0073934Y0180145D02*
X0068916Y0180145D01*
X0069420Y0181744D02*
X0073431Y0181744D01*
X0073431Y0183342D02*
X0069420Y0183342D01*
X0069420Y0184941D02*
X0073431Y0184941D01*
X0073431Y0186539D02*
X0069420Y0186539D01*
X0069420Y0188138D02*
X0073431Y0188138D01*
X0073431Y0189737D02*
X0069420Y0189737D01*
X0069420Y0191335D02*
X0073431Y0191335D01*
X0077331Y0186229D02*
X0077331Y0167469D01*
X0078000Y0166800D01*
X0078000Y0161800D01*
X0084550Y0155250D01*
X0084550Y0117350D01*
X0081450Y0117350D02*
X0081450Y0153350D01*
X0068000Y0166800D01*
X0065520Y0169280D01*
X0065520Y0186229D01*
X0061620Y0186539D02*
X0051099Y0186539D01*
X0051099Y0187024D02*
X0051099Y0184043D01*
X0050977Y0183586D01*
X0050740Y0183175D01*
X0050404Y0182840D01*
X0049994Y0182603D01*
X0049536Y0182480D01*
X0043800Y0182480D01*
X0043800Y0187024D01*
X0043800Y0188624D01*
X0042200Y0188624D01*
X0042200Y0193167D01*
X0036464Y0193167D01*
X0036006Y0193044D01*
X0035596Y0192807D01*
X0035260Y0192472D01*
X0035023Y0192062D01*
X0034901Y0191604D01*
X0034901Y0188624D01*
X0042200Y0188624D01*
X0042200Y0187024D01*
X0034901Y0187024D01*
X0034901Y0184043D01*
X0035023Y0183586D01*
X0035260Y0183175D01*
X0035596Y0182840D01*
X0036006Y0182603D01*
X0036464Y0182480D01*
X0042200Y0182480D01*
X0042200Y0187024D01*
X0043800Y0187024D01*
X0051099Y0187024D01*
X0051099Y0188624D02*
X0051099Y0191604D01*
X0050977Y0192062D01*
X0050740Y0192472D01*
X0050404Y0192807D01*
X0049994Y0193044D01*
X0049536Y0193167D01*
X0043800Y0193167D01*
X0043800Y0188624D01*
X0051099Y0188624D01*
X0051099Y0189737D02*
X0061620Y0189737D01*
X0061620Y0191335D02*
X0051099Y0191335D01*
X0050186Y0192934D02*
X0150800Y0192934D01*
X0150800Y0194532D02*
X0124208Y0194532D01*
X0124400Y0194724D02*
X0124400Y0202380D01*
X0123580Y0203200D01*
X0108916Y0203200D01*
X0108096Y0202380D01*
X0108096Y0194724D01*
X0108916Y0193904D01*
X0123580Y0193904D01*
X0124400Y0194724D01*
X0124400Y0196131D02*
X0150800Y0196131D01*
X0150800Y0197729D02*
X0124400Y0197729D01*
X0124400Y0199328D02*
X0150800Y0199328D01*
X0150800Y0200926D02*
X0124400Y0200926D01*
X0124255Y0202525D02*
X0150800Y0202525D01*
X0150800Y0204123D02*
X0008000Y0204123D01*
X0008000Y0202525D02*
X0042217Y0202525D01*
X0042072Y0202380D02*
X0042893Y0203200D01*
X0057556Y0203200D01*
X0058376Y0202380D01*
X0058376Y0194724D01*
X0057556Y0193904D01*
X0042893Y0193904D01*
X0042072Y0194724D01*
X0042072Y0202380D01*
X0042072Y0200926D02*
X0008000Y0200926D01*
X0008000Y0199328D02*
X0042072Y0199328D01*
X0042072Y0197729D02*
X0008000Y0197729D01*
X0008000Y0196131D02*
X0019603Y0196131D01*
X0018219Y0194532D02*
X0008000Y0194532D01*
X0008000Y0192934D02*
X0017611Y0192934D01*
X0017505Y0191335D02*
X0008000Y0191335D01*
X0008000Y0189737D02*
X0017887Y0189737D01*
X0018884Y0188138D02*
X0008000Y0188138D01*
X0008000Y0186539D02*
X0020187Y0186539D01*
X0018484Y0184941D02*
X0008000Y0184941D01*
X0008000Y0183342D02*
X0017718Y0183342D01*
X0017755Y0180145D02*
X0008000Y0180145D01*
X0008000Y0178547D02*
X0018565Y0178547D01*
X0020407Y0176948D02*
X0008000Y0176948D01*
X0008000Y0175350D02*
X0019337Y0175350D01*
X0018288Y0173751D02*
X0008000Y0173751D01*
X0008000Y0172153D02*
X0017900Y0172153D01*
X0017996Y0170554D02*
X0008000Y0170554D01*
X0008000Y0168956D02*
X0018658Y0168956D01*
X0020399Y0167357D02*
X0008000Y0167357D01*
X0008000Y0165759D02*
X0019746Y0165759D01*
X0018457Y0164160D02*
X0008000Y0164160D01*
X0008000Y0162562D02*
X0017900Y0162562D01*
X0017900Y0160963D02*
X0008000Y0160963D01*
X0008000Y0159365D02*
X0018488Y0159365D01*
X0019821Y0157766D02*
X0008000Y0157766D01*
X0008000Y0156168D02*
X0020218Y0156168D01*
X0018627Y0154569D02*
X0008000Y0154569D01*
X0008000Y0152971D02*
X0017965Y0152971D01*
X0017900Y0151372D02*
X0008000Y0151372D01*
X0008000Y0149774D02*
X0018319Y0149774D01*
X0019412Y0148175D02*
X0008000Y0148175D01*
X0008000Y0146577D02*
X0021205Y0146577D01*
X0018966Y0144978D02*
X0008000Y0144978D01*
X0008000Y0143380D02*
X0018134Y0143380D01*
X0017900Y0141781D02*
X0008000Y0141781D01*
X0008000Y0140183D02*
X0018150Y0140183D01*
X0019003Y0138584D02*
X0008000Y0138584D01*
X0008000Y0136986D02*
X0021296Y0136986D01*
X0017900Y0135387D02*
X0008000Y0135387D01*
X0008000Y0133789D02*
X0017900Y0133789D01*
X0017900Y0132190D02*
X0008000Y0132190D01*
X0008000Y0130592D02*
X0017900Y0130592D01*
X0017900Y0128993D02*
X0008000Y0128993D01*
X0008000Y0127395D02*
X0018026Y0127395D01*
X0019784Y0125796D02*
X0008000Y0125796D01*
X0008000Y0124198D02*
X0018473Y0124198D01*
X0017900Y0122599D02*
X0008000Y0122599D01*
X0008000Y0121001D02*
X0017900Y0121001D01*
X0018473Y0119402D02*
X0008000Y0119402D01*
X0008000Y0117803D02*
X0019784Y0117803D01*
X0020308Y0116205D02*
X0008000Y0116205D01*
X0008000Y0114606D02*
X0018642Y0114606D01*
X0017980Y0113008D02*
X0008000Y0113008D01*
X0008000Y0111409D02*
X0017900Y0111409D01*
X0018304Y0109811D02*
X0008000Y0109811D01*
X0008000Y0108212D02*
X0019375Y0108212D01*
X0020333Y0106614D02*
X0008000Y0106614D01*
X0008000Y0105015D02*
X0018538Y0105015D01*
X0017742Y0103417D02*
X0008000Y0103417D01*
X0008000Y0101818D02*
X0022800Y0101818D01*
X0023200Y0101818D02*
X0029870Y0101818D01*
X0028500Y0101600D02*
X0028500Y0101367D01*
X0028365Y0100512D01*
X0028097Y0099689D01*
X0027704Y0098917D01*
X0027195Y0098217D01*
X0026583Y0097605D01*
X0025883Y0097096D01*
X0025302Y0096800D01*
X0025883Y0096504D01*
X0026583Y0095995D01*
X0027195Y0095383D01*
X0027704Y0094683D01*
X0028097Y0093911D01*
X0028365Y0093088D01*
X0028500Y0092233D01*
X0028500Y0092000D01*
X0023200Y0092000D01*
X0023200Y0096300D01*
X0023200Y0101600D01*
X0028500Y0101600D01*
X0028270Y0100220D02*
X0031469Y0100220D01*
X0033067Y0098621D02*
X0027489Y0098621D01*
X0025739Y0097023D02*
X0034666Y0097023D01*
X0036264Y0095424D02*
X0027154Y0095424D01*
X0028125Y0093826D02*
X0037863Y0093826D01*
X0039461Y0092227D02*
X0028500Y0092227D01*
X0028383Y0090629D02*
X0041060Y0090629D01*
X0043350Y0091450D02*
X0023000Y0111800D01*
X0028258Y0103417D02*
X0028272Y0103417D01*
X0033000Y0106800D02*
X0033000Y0111800D01*
X0023000Y0121800D01*
X0023000Y0131800D02*
X0038000Y0116800D01*
X0038000Y0106800D01*
X0047150Y0097650D01*
X0052450Y0097650D01*
X0052450Y0094550D02*
X0045250Y0094550D01*
X0033000Y0106800D01*
X0043000Y0106800D02*
X0043000Y0116800D01*
X0033000Y0126800D01*
X0033000Y0141800D01*
X0023000Y0151800D01*
X0030145Y0157766D02*
X0040800Y0157766D01*
X0040800Y0156168D02*
X0031743Y0156168D01*
X0033342Y0154569D02*
X0042159Y0154569D01*
X0043757Y0152971D02*
X0034941Y0152971D01*
X0036539Y0151372D02*
X0045356Y0151372D01*
X0044395Y0149774D02*
X0046954Y0149774D01*
X0045982Y0148175D02*
X0048553Y0148175D01*
X0049146Y0146577D02*
X0046335Y0146577D01*
X0046854Y0144978D02*
X0049146Y0144978D01*
X0049146Y0143380D02*
X0046854Y0143380D01*
X0046854Y0141781D02*
X0049146Y0141781D01*
X0049146Y0140183D02*
X0046854Y0140183D01*
X0044654Y0136800D02*
X0044654Y0145146D01*
X0043000Y0146800D01*
X0041605Y0149774D02*
X0038138Y0149774D01*
X0039736Y0148175D02*
X0040018Y0148175D01*
X0038000Y0146800D02*
X0023000Y0161800D01*
X0026254Y0165759D02*
X0035301Y0165759D01*
X0035301Y0167357D02*
X0025601Y0167357D01*
X0027342Y0168956D02*
X0035301Y0168956D01*
X0035956Y0170554D02*
X0028004Y0170554D01*
X0026663Y0175350D02*
X0063320Y0175350D01*
X0063320Y0176948D02*
X0025593Y0176948D01*
X0027435Y0178547D02*
X0063320Y0178547D01*
X0062123Y0180145D02*
X0028245Y0180145D01*
X0028500Y0182000D02*
X0028500Y0182233D01*
X0028365Y0183088D01*
X0028097Y0183911D01*
X0027704Y0184683D01*
X0027195Y0185383D01*
X0026583Y0185995D01*
X0025883Y0186504D01*
X0025302Y0186800D01*
X0025883Y0187096D01*
X0026583Y0187605D01*
X0027195Y0188217D01*
X0027704Y0188917D01*
X0028097Y0189689D01*
X0028365Y0190512D01*
X0028500Y0191367D01*
X0028500Y0191600D01*
X0023200Y0191600D01*
X0023200Y0186300D01*
X0023200Y0182000D01*
X0028500Y0182000D01*
X0028282Y0183342D02*
X0035164Y0183342D01*
X0034901Y0184941D02*
X0027516Y0184941D01*
X0025813Y0186539D02*
X0034901Y0186539D01*
X0034901Y0189737D02*
X0028113Y0189737D01*
X0028495Y0191335D02*
X0034901Y0191335D01*
X0035814Y0192934D02*
X0028389Y0192934D01*
X0028365Y0193088D02*
X0028097Y0193911D01*
X0027704Y0194683D01*
X0027195Y0195383D01*
X0026583Y0195995D01*
X0025883Y0196504D01*
X0025111Y0196897D01*
X0024288Y0197165D01*
X0023433Y0197300D01*
X0023200Y0197300D01*
X0023200Y0192000D01*
X0028500Y0192000D01*
X0028500Y0192233D01*
X0028365Y0193088D01*
X0027781Y0194532D02*
X0042264Y0194532D01*
X0042200Y0192934D02*
X0043800Y0192934D01*
X0043800Y0191335D02*
X0042200Y0191335D01*
X0042200Y0189737D02*
X0043800Y0189737D01*
X0043800Y0188138D02*
X0061620Y0188138D01*
X0061620Y0184941D02*
X0051099Y0184941D01*
X0050836Y0183342D02*
X0061620Y0183342D01*
X0061620Y0181744D02*
X0023200Y0181744D01*
X0022800Y0181744D02*
X0008000Y0181744D01*
X0022800Y0183342D02*
X0023200Y0183342D01*
X0023200Y0184941D02*
X0022800Y0184941D01*
X0022800Y0186539D02*
X0023200Y0186539D01*
X0023200Y0188138D02*
X0022800Y0188138D01*
X0022800Y0189737D02*
X0023200Y0189737D01*
X0023200Y0191335D02*
X0022800Y0191335D01*
X0022800Y0192934D02*
X0023200Y0192934D01*
X0023200Y0194532D02*
X0022800Y0194532D01*
X0022800Y0196131D02*
X0023200Y0196131D01*
X0026397Y0196131D02*
X0042072Y0196131D01*
X0042200Y0188138D02*
X0027116Y0188138D01*
X0042200Y0186539D02*
X0043800Y0186539D01*
X0043800Y0184941D02*
X0042200Y0184941D01*
X0042200Y0183342D02*
X0043800Y0183342D01*
X0043000Y0165776D02*
X0043000Y0156839D01*
X0051346Y0148493D01*
X0054654Y0151800D01*
X0051309Y0154569D02*
X0048381Y0154569D01*
X0049980Y0152971D02*
X0051088Y0152971D01*
X0051346Y0148493D02*
X0051346Y0136800D01*
X0051400Y0136746D01*
X0051400Y0130200D01*
X0059654Y0126800D02*
X0059654Y0136800D01*
X0059654Y0150107D01*
X0058002Y0154569D02*
X0057998Y0154569D01*
X0058000Y0160963D02*
X0058000Y0160963D01*
X0058000Y0162562D02*
X0058000Y0162562D01*
X0058000Y0164160D02*
X0058000Y0164160D01*
X0058000Y0165759D02*
X0058000Y0165759D01*
X0058000Y0167357D02*
X0058000Y0167357D01*
X0058000Y0168956D02*
X0058000Y0168956D01*
X0058000Y0170554D02*
X0058000Y0170554D01*
X0058000Y0172153D02*
X0058000Y0172153D01*
X0073751Y0164160D02*
X0074200Y0164160D01*
X0081352Y0162562D02*
X0084648Y0162562D01*
X0084200Y0164160D02*
X0081800Y0164160D01*
X0081800Y0165759D02*
X0084200Y0165759D01*
X0084200Y0167357D02*
X0081800Y0167357D01*
X0081800Y0168956D02*
X0084200Y0168956D01*
X0084448Y0170554D02*
X0081552Y0170554D01*
X0080421Y0172153D02*
X0085579Y0172153D01*
X0086942Y0173751D02*
X0079531Y0173751D01*
X0079531Y0175350D02*
X0086942Y0175350D01*
X0086942Y0176948D02*
X0079531Y0176948D01*
X0079531Y0178547D02*
X0086942Y0178547D01*
X0085746Y0180145D02*
X0080727Y0180145D01*
X0081231Y0181744D02*
X0085242Y0181744D01*
X0085242Y0183342D02*
X0081231Y0183342D01*
X0081231Y0184941D02*
X0085242Y0184941D01*
X0085242Y0186539D02*
X0081231Y0186539D01*
X0081231Y0188138D02*
X0085242Y0188138D01*
X0085242Y0189737D02*
X0081231Y0189737D01*
X0081231Y0191335D02*
X0085242Y0191335D01*
X0089142Y0186229D02*
X0089142Y0167942D01*
X0088000Y0166800D01*
X0087650Y0166450D01*
X0087650Y0117350D01*
X0096950Y0117350D02*
X0096950Y0126596D01*
X0097154Y0126800D01*
X0097154Y0136800D01*
X0097154Y0139654D01*
X0101900Y0144400D01*
X0103921Y0141781D02*
X0119290Y0141781D01*
X0119156Y0141745D02*
X0118745Y0141508D01*
X0118410Y0141173D01*
X0118173Y0140762D01*
X0118050Y0140305D01*
X0118050Y0137890D01*
X0122422Y0137890D01*
X0122422Y0141868D01*
X0119613Y0141868D01*
X0119156Y0141745D01*
X0118050Y0140183D02*
X0107143Y0140183D01*
X0107812Y0138584D02*
X0118050Y0138584D01*
X0118050Y0135387D02*
X0107812Y0135387D01*
X0107812Y0134595D02*
X0107812Y0136616D01*
X0104031Y0136616D01*
X0104031Y0133031D01*
X0106249Y0133031D01*
X0106707Y0133154D01*
X0107117Y0133391D01*
X0107452Y0133726D01*
X0107689Y0134137D01*
X0107812Y0134595D01*
X0107488Y0133789D02*
X0115348Y0133789D01*
X0114719Y0132190D02*
X0099354Y0132190D01*
X0099354Y0130592D02*
X0114949Y0130592D01*
X0116203Y0128993D02*
X0107812Y0128993D01*
X0107812Y0127395D02*
X0118450Y0127395D01*
X0118450Y0125796D02*
X0107812Y0125796D01*
X0107812Y0126616D02*
X0104031Y0126616D01*
X0104031Y0123031D01*
X0106249Y0123031D01*
X0106707Y0123154D01*
X0107117Y0123391D01*
X0107452Y0123726D01*
X0107689Y0124137D01*
X0107812Y0124595D01*
X0107812Y0126616D01*
X0107705Y0124198D02*
X0110757Y0124198D01*
X0111141Y0124582D02*
X0110218Y0123659D01*
X0109719Y0122453D01*
X0109719Y0121147D01*
X0110218Y0119941D01*
X0111141Y0119018D01*
X0112347Y0118519D01*
X0113653Y0118519D01*
X0114859Y0119018D01*
X0115782Y0119941D01*
X0116281Y0121147D01*
X0116281Y0122453D01*
X0115782Y0123659D01*
X0114859Y0124582D01*
X0113653Y0125081D01*
X0112347Y0125081D01*
X0111141Y0124582D01*
X0109780Y0122599D02*
X0099150Y0122599D01*
X0103662Y0124198D02*
X0104031Y0124198D01*
X0104031Y0125796D02*
X0103662Y0125796D01*
X0103662Y0127395D02*
X0104031Y0127395D01*
X0104031Y0128993D02*
X0103662Y0128993D01*
X0103662Y0133789D02*
X0104031Y0133789D01*
X0104031Y0135387D02*
X0103662Y0135387D01*
X0103662Y0136986D02*
X0104031Y0136986D01*
X0104031Y0138584D02*
X0103662Y0138584D01*
X0103662Y0140183D02*
X0104031Y0140183D01*
X0105029Y0143380D02*
X0127078Y0143380D01*
X0126710Y0141781D02*
X0129280Y0141781D01*
X0127827Y0140762D02*
X0127590Y0141173D01*
X0127255Y0141508D01*
X0126844Y0141745D01*
X0126387Y0141868D01*
X0123578Y0141868D01*
X0123578Y0137890D01*
X0122422Y0137890D01*
X0122422Y0136734D01*
X0123578Y0136734D01*
X0123578Y0137890D01*
X0127950Y0137890D01*
X0127950Y0140305D01*
X0127827Y0140762D01*
X0127950Y0140183D02*
X0130800Y0140183D01*
X0130800Y0138584D02*
X0127950Y0138584D01*
X0127950Y0136734D02*
X0123578Y0136734D01*
X0123578Y0132756D01*
X0126387Y0132756D01*
X0126844Y0132879D01*
X0127255Y0133116D01*
X0127590Y0133451D01*
X0127827Y0133861D01*
X0127950Y0134319D01*
X0127950Y0136734D01*
X0127950Y0135387D02*
X0130800Y0135387D01*
X0130800Y0133789D02*
X0127785Y0133789D01*
X0130800Y0132190D02*
X0121281Y0132190D01*
X0122320Y0130592D02*
X0130800Y0130592D01*
X0130800Y0128993D02*
X0127550Y0128993D01*
X0127550Y0127395D02*
X0130800Y0127395D01*
X0130800Y0125796D02*
X0127550Y0125796D01*
X0128202Y0124198D02*
X0130800Y0124198D01*
X0130800Y0122599D02*
X0129800Y0122599D01*
X0133000Y0121800D02*
X0133000Y0141800D01*
X0125972Y0146900D01*
X0121072Y0151800D01*
X0113000Y0151800D01*
X0116588Y0148175D02*
X0121586Y0148175D01*
X0123184Y0146577D02*
X0104363Y0146577D01*
X0105181Y0144978D02*
X0123332Y0144978D01*
X0123578Y0141781D02*
X0122422Y0141781D01*
X0122422Y0140183D02*
X0123578Y0140183D01*
X0123578Y0138584D02*
X0122422Y0138584D01*
X0122422Y0136986D02*
X0107812Y0136986D01*
X0118000Y0131800D02*
X0123000Y0126800D01*
X0123000Y0126288D01*
X0130559Y0118729D01*
X0130559Y0116800D01*
X0130559Y0111800D01*
X0130559Y0106800D01*
X0133000Y0106800D01*
X0140500Y0114300D01*
X0144300Y0110800D01*
X0141350Y0109811D02*
X0139122Y0109811D01*
X0137524Y0108212D02*
X0141608Y0108212D01*
X0135974Y0106614D02*
X0135925Y0106614D01*
X0134869Y0105015D02*
X0134327Y0105015D01*
X0134619Y0103417D02*
X0134719Y0103417D01*
X0131353Y0101200D02*
X0131353Y0097825D01*
X0131353Y0101200D01*
X0131353Y0101200D01*
X0131353Y0100220D02*
X0131353Y0100220D01*
X0131353Y0098621D02*
X0131353Y0098621D01*
X0128279Y0098621D02*
X0127998Y0098621D01*
X0125447Y0101200D02*
X0125441Y0101206D01*
X0125441Y0106800D01*
X0122663Y0106614D02*
X0117300Y0106614D01*
X0117300Y0108212D02*
X0122663Y0108212D01*
X0122263Y0109811D02*
X0117300Y0109811D01*
X0117300Y0111409D02*
X0122263Y0111409D01*
X0125441Y0113008D02*
X0125441Y0113008D01*
X0125441Y0114606D02*
X0125441Y0114606D01*
X0125441Y0116205D02*
X0125441Y0116205D01*
X0125441Y0117803D02*
X0125441Y0117803D01*
X0125441Y0119402D02*
X0125441Y0119402D01*
X0125176Y0121001D02*
X0116220Y0121001D01*
X0116220Y0122599D02*
X0118804Y0122599D01*
X0118450Y0124198D02*
X0115243Y0124198D01*
X0115242Y0119402D02*
X0122464Y0119402D01*
X0122263Y0117803D02*
X0108750Y0117803D01*
X0108750Y0116205D02*
X0122263Y0116205D01*
X0122663Y0105015D02*
X0117300Y0105015D01*
X0117300Y0103417D02*
X0122535Y0103417D01*
X0122472Y0101818D02*
X0117300Y0101818D01*
X0117300Y0100220D02*
X0122472Y0100220D01*
X0122896Y0098621D02*
X0117300Y0098621D01*
X0117300Y0097023D02*
X0150800Y0097023D01*
X0150800Y0098621D02*
X0134426Y0098621D01*
X0130953Y0091800D02*
X0140441Y0091800D01*
X0140441Y0086800D02*
X0130953Y0086800D01*
X0130953Y0081800D02*
X0140441Y0081800D01*
X0140441Y0076800D02*
X0130953Y0076800D01*
X0150800Y0060257D02*
X0077080Y0060257D01*
X0075250Y0060257D02*
X0075250Y0060257D01*
X0075250Y0058659D02*
X0075250Y0058659D01*
X0075250Y0057060D02*
X0075250Y0057060D01*
X0075250Y0055462D02*
X0075250Y0055462D01*
X0075250Y0053863D02*
X0075250Y0053863D01*
X0075250Y0052265D02*
X0075250Y0052265D01*
X0075800Y0050666D02*
X0072677Y0050666D01*
X0070700Y0051800D02*
X0072200Y0053300D01*
X0072200Y0056200D01*
X0072150Y0056250D01*
X0069050Y0056250D02*
X0069000Y0056300D01*
X0069000Y0064300D01*
X0066711Y0066651D02*
X0065200Y0066651D01*
X0065760Y0065053D02*
X0064364Y0065053D01*
X0065799Y0063454D02*
X0062765Y0063454D01*
X0061167Y0061856D02*
X0066800Y0061856D01*
X0066800Y0060257D02*
X0059568Y0060257D01*
X0059750Y0056250D02*
X0048000Y0044500D01*
X0048000Y0036800D01*
X0023000Y0011800D01*
X0019486Y0015499D02*
X0008000Y0015499D01*
X0008000Y0017097D02*
X0021026Y0017097D01*
X0018892Y0018696D02*
X0008000Y0018696D01*
X0008000Y0020294D02*
X0018103Y0020294D01*
X0017900Y0021893D02*
X0008000Y0021893D01*
X0008000Y0023491D02*
X0018180Y0023491D01*
X0019077Y0025090D02*
X0008000Y0025090D01*
X0008000Y0026688D02*
X0021475Y0026688D01*
X0019301Y0028287D02*
X0008000Y0028287D01*
X0008000Y0029885D02*
X0018273Y0029885D01*
X0017900Y0031484D02*
X0008000Y0031484D01*
X0008000Y0033082D02*
X0018011Y0033082D01*
X0018673Y0034681D02*
X0008000Y0034681D01*
X0008000Y0036279D02*
X0020487Y0036279D01*
X0017900Y0037878D02*
X0008000Y0037878D01*
X0008000Y0039476D02*
X0017900Y0039476D01*
X0017900Y0041075D02*
X0008000Y0041075D01*
X0008000Y0042673D02*
X0017900Y0042673D01*
X0017900Y0044272D02*
X0008000Y0044272D01*
X0008000Y0045870D02*
X0017900Y0045870D01*
X0020129Y0047469D02*
X0008000Y0047469D01*
X0008000Y0049068D02*
X0018612Y0049068D01*
X0017949Y0050666D02*
X0008000Y0050666D01*
X0008000Y0052265D02*
X0017900Y0052265D01*
X0018334Y0053863D02*
X0008000Y0053863D01*
X0008000Y0055462D02*
X0019449Y0055462D01*
X0021116Y0057060D02*
X0008000Y0057060D01*
X0008000Y0058659D02*
X0018929Y0058659D01*
X0018119Y0060257D02*
X0008000Y0060257D01*
X0008000Y0061856D02*
X0017900Y0061856D01*
X0018165Y0063454D02*
X0008000Y0063454D01*
X0008000Y0065053D02*
X0019040Y0065053D01*
X0021385Y0066651D02*
X0008000Y0066651D01*
X0008000Y0068250D02*
X0019338Y0068250D01*
X0018288Y0069848D02*
X0008000Y0069848D01*
X0008000Y0071447D02*
X0017900Y0071447D01*
X0017996Y0073045D02*
X0008000Y0073045D01*
X0008000Y0074644D02*
X0018658Y0074644D01*
X0020398Y0076242D02*
X0008000Y0076242D01*
X0008000Y0077841D02*
X0019747Y0077841D01*
X0018458Y0079439D02*
X0008000Y0079439D01*
X0008000Y0081038D02*
X0017900Y0081038D01*
X0017900Y0082636D02*
X0008000Y0082636D01*
X0008000Y0084235D02*
X0018488Y0084235D01*
X0019821Y0085833D02*
X0008000Y0085833D01*
X0008000Y0087432D02*
X0019655Y0087432D01*
X0018238Y0089030D02*
X0008000Y0089030D01*
X0008000Y0090629D02*
X0017617Y0090629D01*
X0017500Y0092227D02*
X0008000Y0092227D01*
X0008000Y0093826D02*
X0017875Y0093826D01*
X0018846Y0095424D02*
X0008000Y0095424D01*
X0008000Y0097023D02*
X0020261Y0097023D01*
X0018511Y0098621D02*
X0008000Y0098621D01*
X0008000Y0100220D02*
X0017730Y0100220D01*
X0022800Y0100220D02*
X0023200Y0100220D01*
X0023200Y0098621D02*
X0022800Y0098621D01*
X0022800Y0097023D02*
X0023200Y0097023D01*
X0023200Y0095424D02*
X0022800Y0095424D01*
X0022800Y0093826D02*
X0023200Y0093826D01*
X0023200Y0092227D02*
X0022800Y0092227D01*
X0026345Y0087432D02*
X0048700Y0087432D01*
X0048700Y0089030D02*
X0027762Y0089030D01*
X0026179Y0085833D02*
X0048700Y0085833D01*
X0048700Y0084235D02*
X0027512Y0084235D01*
X0028100Y0082636D02*
X0048700Y0082636D01*
X0052450Y0079050D02*
X0025750Y0079050D01*
X0023000Y0081800D01*
X0027150Y0075950D02*
X0023000Y0071800D01*
X0027150Y0075950D02*
X0052450Y0075950D01*
X0052450Y0072850D02*
X0034050Y0072850D01*
X0023000Y0061800D01*
X0023000Y0041800D02*
X0047850Y0066650D01*
X0052450Y0066650D01*
X0052450Y0063550D02*
X0049750Y0063550D01*
X0038000Y0051800D01*
X0038000Y0046800D01*
X0023000Y0031800D01*
X0023000Y0021800D02*
X0043000Y0041800D01*
X0043000Y0046800D01*
X0063000Y0066800D01*
X0063000Y0106800D01*
X0055900Y0113900D01*
X0052800Y0113900D01*
X0052450Y0113550D01*
X0052450Y0110050D01*
X0052450Y0106950D02*
X0048000Y0106800D01*
X0047300Y0107500D01*
X0047363Y0116771D01*
X0038000Y0126133D01*
X0038000Y0146800D01*
X0040800Y0159365D02*
X0028546Y0159365D01*
X0028100Y0160963D02*
X0035991Y0160963D01*
X0035301Y0162562D02*
X0028100Y0162562D01*
X0027543Y0164160D02*
X0035301Y0164160D01*
X0058184Y0194532D02*
X0108288Y0194532D01*
X0108096Y0196131D02*
X0058376Y0196131D01*
X0058376Y0197729D02*
X0108096Y0197729D01*
X0108096Y0199328D02*
X0058376Y0199328D01*
X0058376Y0200926D02*
X0108096Y0200926D01*
X0108241Y0202525D02*
X0058232Y0202525D01*
X0081948Y0160963D02*
X0085450Y0160963D01*
X0085450Y0159365D02*
X0083546Y0159365D01*
X0085145Y0157766D02*
X0085450Y0157766D01*
X0091800Y0164160D02*
X0092249Y0164160D01*
X0091800Y0165759D02*
X0093848Y0165759D01*
X0094200Y0167357D02*
X0091800Y0167357D01*
X0091800Y0168956D02*
X0094200Y0168956D01*
X0094448Y0170554D02*
X0091552Y0170554D01*
X0091342Y0172153D02*
X0095579Y0172153D01*
X0098753Y0173751D02*
X0091342Y0173751D01*
X0091342Y0175350D02*
X0098753Y0175350D01*
X0098753Y0176948D02*
X0091342Y0176948D01*
X0091342Y0178547D02*
X0098753Y0178547D01*
X0097557Y0180145D02*
X0092538Y0180145D01*
X0093042Y0181744D02*
X0097053Y0181744D01*
X0097053Y0183342D02*
X0093042Y0183342D01*
X0093042Y0184941D02*
X0097053Y0184941D01*
X0097053Y0186539D02*
X0093042Y0186539D01*
X0093042Y0188138D02*
X0097053Y0188138D01*
X0097053Y0189737D02*
X0093042Y0189737D01*
X0093042Y0191335D02*
X0097053Y0191335D01*
X0104853Y0191335D02*
X0150800Y0191335D01*
X0150800Y0189737D02*
X0104853Y0189737D01*
X0104853Y0188138D02*
X0150800Y0188138D01*
X0138000Y0176800D02*
X0143000Y0171800D01*
X0143000Y0166800D01*
X0141701Y0166800D01*
X0140799Y0167702D01*
X0143000Y0166800D02*
X0148000Y0161800D01*
X0148000Y0151800D01*
X0143000Y0146800D01*
X0143000Y0144772D01*
X0153000Y0134772D01*
X0153000Y0111900D01*
X0151900Y0110800D01*
X0150800Y0100220D02*
X0150800Y0100220D01*
X0140500Y0114300D02*
X0143000Y0116800D01*
X0143000Y0128828D01*
X0138672Y0128828D01*
X0136876Y0127395D02*
X0135200Y0127395D01*
X0135200Y0128993D02*
X0136472Y0128993D01*
X0136876Y0130592D02*
X0135200Y0130592D01*
X0135200Y0132190D02*
X0136876Y0132190D01*
X0136876Y0125796D02*
X0135200Y0125796D01*
X0135200Y0124198D02*
X0137382Y0124198D01*
X0135312Y0122599D02*
X0140800Y0122599D01*
X0140800Y0121001D02*
X0136911Y0121001D01*
X0140038Y0119402D02*
X0140800Y0119402D01*
X0138000Y0116800D02*
X0133000Y0121800D01*
X0123578Y0133789D02*
X0122422Y0133789D01*
X0122422Y0135387D02*
X0123578Y0135387D01*
X0123578Y0136986D02*
X0130800Y0136986D01*
X0135200Y0140183D02*
X0137342Y0140183D01*
X0136876Y0141781D02*
X0135231Y0141781D01*
X0134569Y0143380D02*
X0136876Y0143380D01*
X0135027Y0144978D02*
X0135028Y0144978D01*
X0131987Y0146577D02*
X0130164Y0146577D01*
X0128613Y0148175D02*
X0131987Y0148175D01*
X0132482Y0149774D02*
X0127953Y0149774D01*
X0133630Y0156168D02*
X0136046Y0156168D01*
X0140615Y0154569D02*
X0140983Y0154569D01*
X0140983Y0152971D02*
X0140615Y0152971D01*
X0145277Y0152971D02*
X0145800Y0152971D01*
X0145800Y0154569D02*
X0145552Y0154569D01*
X0145552Y0156168D02*
X0145800Y0156168D01*
X0145800Y0157766D02*
X0145552Y0157766D01*
X0145800Y0159365D02*
X0145136Y0159365D01*
X0145136Y0160963D02*
X0145725Y0160963D01*
X0139536Y0172153D02*
X0122455Y0172153D01*
X0120857Y0173751D02*
X0136786Y0173751D01*
X0135049Y0175350D02*
X0116663Y0175350D01*
X0124054Y0170554D02*
X0136751Y0170554D01*
X0136446Y0168956D02*
X0125652Y0168956D01*
X0133810Y0167357D02*
X0136446Y0167357D01*
X0136398Y0165759D02*
X0136446Y0165759D01*
X0134719Y0176948D02*
X0103153Y0176948D01*
X0103153Y0175350D02*
X0109337Y0175350D01*
X0108288Y0173751D02*
X0103153Y0173751D01*
X0103153Y0172153D02*
X0107900Y0172153D01*
X0107996Y0170554D02*
X0103153Y0170554D01*
X0103153Y0168956D02*
X0108658Y0168956D01*
X0103153Y0178547D02*
X0135172Y0178547D01*
X0150800Y0205722D02*
X0008000Y0205722D01*
X0066162Y0128993D02*
X0066531Y0128993D01*
X0066531Y0127395D02*
X0066162Y0127395D01*
X0065950Y0120550D02*
X0065950Y0117350D01*
X0059750Y0117350D02*
X0059750Y0126704D01*
X0059654Y0126800D01*
X0069643Y0140183D02*
X0079250Y0140183D01*
X0079250Y0141781D02*
X0072621Y0141781D01*
X0073729Y0143380D02*
X0079250Y0143380D01*
X0079250Y0144978D02*
X0073881Y0144978D01*
X0070312Y0138584D02*
X0079250Y0138584D01*
X0079250Y0136986D02*
X0076069Y0136986D01*
X0076572Y0135387D02*
X0079250Y0135387D01*
X0079250Y0133789D02*
X0076572Y0133789D01*
X0076393Y0132190D02*
X0079250Y0132190D01*
X0079250Y0130592D02*
X0076172Y0130592D01*
X0076172Y0128993D02*
X0079250Y0128993D01*
X0079250Y0127395D02*
X0076172Y0127395D01*
X0075200Y0125796D02*
X0079250Y0125796D01*
X0079250Y0124198D02*
X0075200Y0124198D01*
X0074010Y0122599D02*
X0079250Y0122599D01*
X0073000Y0135387D02*
X0073000Y0135387D01*
X0073000Y0136986D02*
X0073000Y0136986D01*
X0052450Y0103850D02*
X0045950Y0103850D01*
X0043000Y0106800D01*
X0043350Y0091450D02*
X0052450Y0091450D01*
X0078350Y0056250D02*
X0078000Y0055900D01*
X0078000Y0029900D01*
X0069500Y0021400D01*
X0069500Y0007154D01*
X0069346Y0007000D01*
X0058688Y0007506D02*
X0025919Y0007506D01*
X0027404Y0009105D02*
X0058688Y0009105D01*
X0056834Y0010703D02*
X0028066Y0010703D01*
X0028100Y0012302D02*
X0056400Y0012302D01*
X0056400Y0013900D02*
X0028212Y0013900D01*
X0029810Y0015499D02*
X0056400Y0015499D01*
X0056400Y0017097D02*
X0031409Y0017097D01*
X0033007Y0018696D02*
X0056400Y0018696D01*
X0056400Y0020294D02*
X0034606Y0020294D01*
X0036204Y0021893D02*
X0056400Y0021893D01*
X0056400Y0023491D02*
X0037803Y0023491D01*
X0039401Y0025090D02*
X0056400Y0025090D01*
X0056400Y0026688D02*
X0041000Y0026688D01*
X0042598Y0028287D02*
X0056400Y0028287D01*
X0056400Y0029885D02*
X0044197Y0029885D01*
X0045795Y0031484D02*
X0056400Y0031484D01*
X0057020Y0033082D02*
X0047394Y0033082D01*
X0048992Y0034681D02*
X0055479Y0034681D01*
X0054719Y0036279D02*
X0050200Y0036279D01*
X0050200Y0037878D02*
X0054895Y0037878D01*
X0056036Y0039476D02*
X0050200Y0039476D01*
X0050200Y0041075D02*
X0062454Y0041075D01*
X0062454Y0042673D02*
X0050200Y0042673D01*
X0050883Y0044272D02*
X0061088Y0044272D01*
X0061088Y0045870D02*
X0052482Y0045870D01*
X0054080Y0047469D02*
X0061088Y0047469D01*
X0061088Y0049068D02*
X0055679Y0049068D01*
X0057277Y0050666D02*
X0063755Y0050666D01*
X0065353Y0052265D02*
X0058876Y0052265D01*
X0064654Y0048454D02*
X0068000Y0051800D01*
X0070700Y0051800D01*
X0071531Y0046616D02*
X0075312Y0046616D01*
X0075312Y0044595D01*
X0075189Y0044137D01*
X0074952Y0043726D01*
X0074617Y0043391D01*
X0074207Y0043154D01*
X0073749Y0043031D01*
X0071531Y0043031D01*
X0071531Y0046616D01*
X0071531Y0045870D02*
X0071162Y0045870D01*
X0071162Y0044272D02*
X0071531Y0044272D01*
X0075800Y0042673D02*
X0066854Y0042673D01*
X0066854Y0041075D02*
X0075800Y0041075D01*
X0075800Y0039476D02*
X0075182Y0039476D01*
X0075312Y0037878D02*
X0075800Y0037878D01*
X0075800Y0036279D02*
X0075312Y0036279D01*
X0075312Y0034681D02*
X0075800Y0034681D01*
X0071531Y0037878D02*
X0071162Y0037878D01*
X0071162Y0039476D02*
X0071531Y0039476D01*
X0075225Y0044272D02*
X0075800Y0044272D01*
X0075800Y0045870D02*
X0075312Y0045870D01*
X0075312Y0047469D02*
X0075800Y0047469D01*
X0075800Y0049068D02*
X0075295Y0049068D01*
X0081450Y0056250D02*
X0081450Y0029450D01*
X0089500Y0021400D01*
X0089500Y0007654D01*
X0089554Y0007600D01*
X0096431Y0007506D02*
X0109553Y0007506D01*
X0109417Y0007605D02*
X0110117Y0007096D01*
X0110889Y0006703D01*
X0111712Y0006435D01*
X0112567Y0006300D01*
X0112800Y0006300D01*
X0112800Y0011600D01*
X0107500Y0011600D01*
X0107500Y0011367D01*
X0107635Y0010512D01*
X0107903Y0009689D01*
X0108296Y0008917D01*
X0108805Y0008217D01*
X0109417Y0007605D01*
X0108201Y0009105D02*
X0100212Y0009105D01*
X0100212Y0005908D02*
X0150800Y0005908D01*
X0150800Y0007506D02*
X0116447Y0007506D01*
X0116583Y0007605D02*
X0117195Y0008217D01*
X0117704Y0008917D01*
X0118097Y0009689D01*
X0118365Y0010512D01*
X0118500Y0011367D01*
X0118500Y0011600D01*
X0113200Y0011600D01*
X0113200Y0006300D01*
X0113433Y0006300D01*
X0114288Y0006435D01*
X0115111Y0006703D01*
X0115883Y0007096D01*
X0116583Y0007605D01*
X0117799Y0009105D02*
X0150800Y0009105D01*
X0150800Y0010703D02*
X0118395Y0010703D01*
X0118489Y0012302D02*
X0150800Y0012302D01*
X0150800Y0013900D02*
X0118101Y0013900D01*
X0117079Y0015499D02*
X0150800Y0015499D01*
X0150800Y0017097D02*
X0114974Y0017097D01*
X0117108Y0018696D02*
X0150800Y0018696D01*
X0150800Y0020294D02*
X0117897Y0020294D01*
X0118100Y0021893D02*
X0150800Y0021893D01*
X0150800Y0023491D02*
X0117820Y0023491D01*
X0116923Y0025090D02*
X0150800Y0025090D01*
X0150800Y0026688D02*
X0114525Y0026688D01*
X0116699Y0028287D02*
X0150800Y0028287D01*
X0150800Y0029885D02*
X0117727Y0029885D01*
X0118100Y0031484D02*
X0150800Y0031484D01*
X0150800Y0033082D02*
X0117989Y0033082D01*
X0117327Y0034681D02*
X0150800Y0034681D01*
X0150800Y0036279D02*
X0115513Y0036279D01*
X0118100Y0037878D02*
X0150800Y0037878D01*
X0150800Y0039476D02*
X0118100Y0039476D01*
X0118100Y0041075D02*
X0150800Y0041075D01*
X0150800Y0042673D02*
X0118100Y0042673D01*
X0118100Y0044272D02*
X0150800Y0044272D01*
X0150800Y0045870D02*
X0118100Y0045870D01*
X0110487Y0036279D02*
X0101632Y0036279D01*
X0103230Y0034681D02*
X0108673Y0034681D01*
X0107900Y0037878D02*
X0100033Y0037878D01*
X0098435Y0039476D02*
X0107900Y0039476D01*
X0107900Y0041075D02*
X0096836Y0041075D01*
X0095238Y0042673D02*
X0107900Y0042673D01*
X0107900Y0044272D02*
X0093639Y0044272D01*
X0092041Y0045870D02*
X0107900Y0045870D01*
X0108750Y0053863D02*
X0150800Y0053863D01*
X0150800Y0052265D02*
X0089850Y0052265D01*
X0089850Y0050666D02*
X0150800Y0050666D01*
X0150800Y0049068D02*
X0089850Y0049068D01*
X0090442Y0047469D02*
X0150800Y0047469D01*
X0150800Y0055462D02*
X0108750Y0055462D01*
X0108750Y0057060D02*
X0150800Y0057060D01*
X0150800Y0058659D02*
X0108750Y0058659D01*
X0087650Y0056250D02*
X0087650Y0047150D01*
X0103000Y0031800D01*
X0113000Y0031800D01*
X0113000Y0021800D02*
X0108000Y0021800D01*
X0084600Y0045200D01*
X0084600Y0056200D01*
X0084550Y0056250D01*
X0064654Y0048454D02*
X0064654Y0046800D01*
X0064654Y0036800D01*
X0058000Y0036800D01*
X0059964Y0039476D02*
X0061216Y0039476D01*
X0058688Y0005908D02*
X0008000Y0005908D01*
X0008000Y0007506D02*
X0020081Y0007506D01*
X0018596Y0009105D02*
X0008000Y0009105D01*
X0008000Y0010703D02*
X0017934Y0010703D01*
X0017900Y0012302D02*
X0008000Y0012302D01*
X0008000Y0013900D02*
X0018350Y0013900D01*
X0008000Y0004309D02*
X0058827Y0004309D01*
X0099635Y0004309D02*
X0150800Y0004309D01*
X0113200Y0007506D02*
X0112800Y0007506D01*
X0112800Y0009105D02*
X0113200Y0009105D01*
X0113200Y0010703D02*
X0112800Y0010703D01*
X0107899Y0013900D02*
X0104600Y0013900D01*
X0104600Y0012302D02*
X0107511Y0012302D01*
X0107605Y0010703D02*
X0104166Y0010703D01*
X0104600Y0015499D02*
X0108921Y0015499D01*
X0111026Y0017097D02*
X0104600Y0017097D01*
X0104600Y0018696D02*
X0108892Y0018696D01*
X0106394Y0020294D02*
X0104600Y0020294D01*
X0104600Y0021893D02*
X0104796Y0021893D01*
X0108750Y0119402D02*
X0110758Y0119402D01*
X0109780Y0121001D02*
X0108029Y0121001D01*
X0140972Y0144772D02*
X0143000Y0144772D01*
X0150800Y0207320D02*
X0114106Y0207320D01*
D32*
X0123000Y0186800D03*
X0138000Y0176800D03*
X0143000Y0196800D03*
X0101900Y0144400D03*
X0118000Y0131800D03*
X0113000Y0121800D03*
X0103000Y0101800D03*
X0103000Y0071800D03*
X0078000Y0071800D03*
X0069000Y0064300D03*
X0058000Y0036800D03*
X0048000Y0016800D03*
X0033000Y0086800D03*
X0051400Y0130200D03*
X0043000Y0146800D03*
X0070600Y0144400D03*
X0073000Y0151800D03*
X0078000Y0101800D03*
X0138000Y0104000D03*
X0138000Y0116800D03*
X0138000Y0046800D03*
X0138000Y0021800D03*
X0033000Y0196800D03*
D33*
X0113000Y0171800D02*
X0118000Y0171800D01*
X0128000Y0161800D01*
X0129299Y0161800D01*
X0133000Y0161800D01*
M02*
